<svg id="Layer_1" data-name="Layer 1" xmlns="http://www.w3.org/2000/svg" xmlns:xlink="http://www.w3.org/1999/xlink" viewBox="0 0 24 24"><defs><style>.cls-1{fill:url(#New_Gradient_Swatch_1);}.cls-2{fill:#fff;}</style><linearGradient id="New_Gradient_Swatch_1" x1="6.35" y1="-0.36" x2="18.32" y2="25.65" gradientUnits="userSpaceOnUse"><stop offset="0" stop-color="#ad1457"/><stop offset="0.26" stop-color="#f16e9a"/><stop offset="0.61" stop-color="#ea416c"/><stop offset="0.73" stop-color="#cb3163"/><stop offset="1" stop-color="#880e4f"/></linearGradient></defs><title>Artboard 1</title><path id="BACKGROUND" class="cls-1" d="M22.34,5.79a10.39,10.39,0,0,0-4.18-4.13A12.6,12.6,0,0,0,12,.19,12.6,12.6,0,0,0,5.86,1.66,10.39,10.39,0,0,0,1.68,5.79,12.39,12.39,0,0,0,.2,11.94a12.39,12.39,0,0,0,1.48,6.15,10.32,10.32,0,0,0,4.18,4.13A12.6,12.6,0,0,0,12,23.69a12.6,12.6,0,0,0,6.15-1.47,10.32,10.32,0,0,0,4.18-4.13,12.39,12.39,0,0,0,1.49-6.15A12.39,12.39,0,0,0,22.34,5.79Z"/><path class="cls-2" d="M7.51,11.76c0-.54-.43-2.12-.51-2.45-.14-.56-.33-.88-.93-.78s-3.28.54-4.1.74a1.19,1.19,0,0,0-.79,1.24,14.24,14.24,0,0,0,.47,2.57,1,1,0,0,0,1.05.76c.68-.09,3.7-.94,4.25-1.11A.86.86,0,0,0,7.51,11.76Zm-3.65,1-.15,0a1.14,1.14,0,0,1-1.33-.9l-.11-.57A1.16,1.16,0,0,1,3.12,9.9l.15,0a1.13,1.13,0,0,1,1.33.9l.11.57A1.15,1.15,0,0,1,3.86,12.71ZM5,10.11a.48.48,0,0,1,.36-.57l.14,0a.47.47,0,0,1,.56.37l0,.15a.48.48,0,0,1-.36.57l-.14,0a.47.47,0,0,1-.56-.37Zm1.87,1.11s-.23,0-.27.06a2.81,2.81,0,0,1-.31.08c-.33.08-.64.25-1,.31s-.21-.1-.25-.28,0-.13.1-.18l.33-.12a2.91,2.91,0,0,1,.64-.18l.36-.06a.86.86,0,0,1,.27,0A.52.52,0,0,1,6.91,11.22Z"/><path class="cls-2" d="M22.49,5.7A10.47,10.47,0,0,0,19.9,2.61h0c-.91.07-2.41.26-3.2.41-.44.09-3,.78-3.37.9a4.38,4.38,0,0,0-2.84,3,10.77,10.77,0,0,0-.26,4.19c.13,1.58.45,3.14.65,4.71a7.5,7.5,0,0,1,0,2.41,1.29,1.29,0,0,1-1.86,1,2.6,2.6,0,0,1-.94-.74,9.51,9.51,0,0,1-1.5-3A16.42,16.42,0,0,1,6,13c-.08-.41-.23-.53-.55-.47A13.19,13.19,0,0,0,3.66,13a.38.38,0,0,0-.28.46c0,.12,0,.25,0,.38a16.36,16.36,0,0,0,2.07,5.74,8.24,8.24,0,0,0,2.72,2.91,3.77,3.77,0,0,0,4.37-.14,6.54,6.54,0,0,0,1.78-2,.67.67,0,0,0,0,.28c0,1-.07,2.06-.08,3.09a12.2,12.2,0,0,0,3.49-1.05,19.85,19.85,0,0,0-.06-2.56c0-.19,0-.35.26-.36s.34.07.35.31c0,.64.09,1.27.07,1.91v.38a10.49,10.49,0,0,0,4.15-4.15A12.51,12.51,0,0,0,24,11.94,12.53,12.53,0,0,0,22.49,5.7Zm-7.57,5.72a1.54,1.54,0,0,1-.35.84,1.32,1.32,0,0,1-1.69.15,2,2,0,0,1-.62-1,1.87,1.87,0,0,1,0-.52c0-.17.1-.19.26-.2h.24c.1,0,.08,0,.1.11s.06.38.13.57a.82.82,0,0,0,.71.57.58.58,0,0,0,.41-.07.82.82,0,0,0,.24-.47,2.75,2.75,0,0,0,.09-.5c0-.16,0-.23.14-.26a1,1,0,0,1,.34,0c.1,0,.08,0,.09.15A4.82,4.82,0,0,1,14.92,11.42Zm8,2.56a6.66,6.66,0,0,1-.33,1.1,4,4,0,0,1-.76,1.24c-.06.07-.14.14-.21.21l-.12.09-.06.05-.06,0a3.14,3.14,0,0,1-.54.29l-.12.05-.13,0-.26.08-.16,0-.17,0-.08,0h-.25a3.89,3.89,0,0,1-.68,0,2.65,2.65,0,0,1-.66-.16,2.76,2.76,0,0,1-.61-.33,2.19,2.19,0,0,1-.47-.44,3,3,0,0,1-.33-.54,5.59,5.59,0,0,1-.26-.63,3.94,3.94,0,0,1-.18-.65,11.22,11.22,0,0,1-.18-1.91,12.2,12.2,0,0,1,.09-1.81c.05-.38.08-.77.16-1.15s.16-.8.27-1.2S17,8,17.16,8s.17,0,.24,0,.08.1.05.23c-.14.62-.25,1.24-.33,1.87S17,11.4,17,12c0,.21,0,.43,0,.65s0,.44,0,.65a6.5,6.5,0,0,0,.21,1.26,3.89,3.89,0,0,0,.47,1.1,2,2,0,0,0,.83.72,2.33,2.33,0,0,0,.79.17,2.92,2.92,0,0,0,.83-.07,2.69,2.69,0,0,0,.79-.3,2.36,2.36,0,0,0,.64-.54,3.68,3.68,0,0,0,.71-1.61,8.8,8.8,0,0,0,.19-1.85,19.33,19.33,0,0,0-.25-2.84c-.07-.45-.14-.89-.24-1.34s-.21-.88-.32-1.32-.08-.38.08-.45a.56.56,0,0,1,.29,0c.06,0,.1.07.13.18.1.33.18.67.27,1,.18.73.28,1.48.42,2.22a9.26,9.26,0,0,1,.13.92A14.58,14.58,0,0,1,23,13.13,8.24,8.24,0,0,1,22.92,14Z"/><g id="SOUNDWAVE-FIRST"><path class="cls-2" d="M7,7.49a1.84,1.84,0,0,0-.81-.12,1.58,1.58,0,0,0-.53.07c-.11,0-.2.07-.28,0A1.14,1.14,0,0,1,5.17,7c0-.11.24-.17.34-.2A2.68,2.68,0,0,1,6.6,6.69a1.82,1.82,0,0,1,1,.39,1.64,1.64,0,0,1,.29.3A1.06,1.06,0,0,1,8,7.85c0,.14-.48.22-.55.15s-.05-.19-.11-.26A1.2,1.2,0,0,0,7,7.49Z"/></g><g id="SOUNDWAVE-SECOND"><path class="cls-2" d="M7.71,6.23a1.58,1.58,0,0,0-.38-.15,4.2,4.2,0,0,0-.51,0,2.87,2.87,0,0,0-1,0l-.46.11c-.14,0-.18,0-.27-.1S4.89,5.78,5,5.69a1.19,1.19,0,0,1,.25-.13l.29-.1a3.43,3.43,0,0,1,2.28.1,2.27,2.27,0,0,1,.9.66,1.87,1.87,0,0,1,.22.39A.76.76,0,0,1,9,7c0,.12-.28.13-.39.15s-.14,0-.18-.12A1.34,1.34,0,0,0,7.71,6.23Z"/></g></svg>