<svg id="LOGO" xmlns="http://www.w3.org/2000/svg" xmlns:xlink="http://www.w3.org/1999/xlink" viewBox="0 0 500 500"><defs><style>.cls-1{fill:none;}.cls-2{clip-path:url(#clip-path);}.cls-3{fill:#f2f0eb;}.cls-4{fill:#0d0d0d;}</style><clipPath id="clip-path"><path class="cls-1" d="M468.58,119.82q-31.44-56.26-88.4-87.36T250,1.38q-73.21,0-130.19,31.08T31.44,119.82Q0,176.1,0,250T31.44,380.18q31.41,56.31,88.38,87.36T250,498.62q73.19,0,130.17-31.08t88.4-87.36Q500,323.9,500,250T468.58,119.82Z"/></clipPath></defs><title>Artboard 1 copy</title><path d="M468.58,119.82q-31.44-56.26-88.4-87.36T250,1.38q-73.21,0-130.19,31.08T31.44,119.82Q0,176.1,0,250T31.44,380.18q31.41,56.31,88.38,87.36T250,498.62q73.19,0,130.17-31.08t88.4-87.36Q500,323.9,500,250T468.58,119.82Z"/><g id="Elephant_w_mask" data-name="Elephant w/mask"><g class="cls-2"><g id="Elephant_shape" data-name="Elephant shape"><path class="cls-3" d="M754.55,197.67v7.24c-2.64,2.73-5.87,3-9.37,2.32-7.6-1.37-15.14-3-22.1-6.49-3.39-1.71-5.16-.83-4.65,3.07,2,15.29,2.29,30.7,3.5,46a314.28,314.28,0,0,1,.35,49.08c-1.1,14.17-1.12,28.36-2,42.51q-2.79,43.92-5.78,87.82c-1.09,16.32-2.27,32.63-3.41,48.95-.78,11.26-1.28,22.57-2.9,33.77a10.32,10.32,0,0,1-3.45,6.93c-4.35,2.16-9,1.17-13.51,1-3.31-.1-5.46-1.82-4.94-5.47-2.36,5.61-5.72,6.67-15.83,5.66-4.84-.49-6.08-3.16-5.75-6.86.4,4-1.15,6.77-6.14,6.83-21.55.24-19.18,1.23-19.21-17.43,0-16.66-.32-33.33.09-50,.29-11.62-2-23-1.73-34.64.14-6.8-2.45-8.92-9.32-9.4-4.81-.34-9.65-.15-14.48,0s-7.78,2.57-7.78,7.56c0,9.15-.88,18.34.74,27.45-2.9,22.79.1,45.83-2.92,68.61-1.32,9.94-15.1,15.94-23.46,10.15a4.45,4.45,0,0,1-2.07-4.27c.15-2.88,0-5.75,0-8.63.19,12.11-.76,13.9-8.63,14.2-4.43.17-10,1.65-12.54-3.18-2-3.85.15-8.86-.83-12.87.9,1.1.24,2.85.26,4.46.11,9.56-1.46,11.46-9.46,11.68-9,.24-12.89-3-13-11.61-.28-30.43-.07-60.86-.12-91.29,0-2.42,0-4.83-.1-7.25-.19-3.48-1.58-5-5.49-4.8-22.44,1.17-44.91.25-67.36.54-9.07.12-8.92.57-8.47,9.6.85,16.85,3,33.6,3.47,50.49.35,12.51,2.66,24.92,2.76,37.46.1,11.83-2.1,13.93-13.84,14-1.45,0-2.9,0-4.35,0-9.39-.2-10.09-.94-10.12-10.51,0,9.6-1.42,10.77-12.29,10.49-9.18-.24-9.75-1.07-9.26-13.32-.53,13.11-1.71,14.17-14.74,13.28-7.38-.5-10.92-3.46-10.73-10.84.44-17.16-2.27-34.2-1.62-51.33.5-13.3-1.06-26.5-1.47-39.75-.16-5.05-2.48-6.8-7.26-6.6-5.2.23-5.9,3.65-5.39,7.52,3.39,26.18-.83,52.6,2.57,78.79a77,77,0,0,1,0,14.48c-.44,7-3.42,10-10.31,10.59-2.17.18-4.35.12-6.52.11-13.17,0-13.57-.41-13.6-13.23,0,11.78-1.16,13.22-10.53,13.18s-11.12-2.05-11.21-12.41c-.11,10.64-1.52,12.42-9.8,12.39-8.59,0-11.67-3.34-12-12.63-1-26.8,2.08-53.52,1.54-80.31a13,13,0,0,1,1-6,135.35,135.35,0,0,1-37.26,41.92c-28,20.7-61.09,21.14-91,3-24.69-15-42.26-36.51-56.75-60.73C91.92,372.05,78,331.88,70.91,289.3c-.43-2.63-.64-5.27-.93-7.91-.51-4.65,1.44-8.18,5.92-9.62,11.94-3.84,23.94-7.56,36.26-9.94,6.76-1.31,9.86,1.28,11.43,9.77a346.23,346.23,0,0,0,13.47,51.76c7.67,21.9,16.26,43.39,31.16,61.7a53.26,53.26,0,0,0,19.68,15.5c17.18,7.69,35.34-1.44,38.8-19.95,3.14-16.75,2-33.61-.22-50.42-4.27-32.74-10.88-65.18-13.62-98.08-2.45-29.3-3.54-58.81,5.45-87.48,9.49-30.3,29-51.25,59.12-61.92,7.26-2.57,61.17-16.94,70.33-18.73,16.52-3.23,47.79-7,66.74-8.58,19.22-1.58,37.74-1.92,37.74-1.92s44.9.27,86.19,4.11c36.66,3.41,71.83,11.65,76.73,12.12,34,8.23,61.7,25.29,79.13,56.57,4.33,7.77,9.13,15.57,10.91,24.32,4.41,21.71,19.77,32.57,38.43,40.5C747.58,192.78,752,193.72,754.55,197.67Z"/><path class="cls-4" d="M359.17,168.43c-2.37,11.49-4.8,21.47-6.44,31.57-5.75,35.34-7.84,70.69,1.15,105.89a75.22,75.22,0,0,0,9.58,22.22c7.3,11.34,17.17,19,30.74,21.05,12.35,1.88,24.67,1.78,36.83-1.48,18.69-5,29.79-17.58,35.45-35.58,6.49-20.64,6.08-41.89,4.44-63-2.43-31.17-5.39-62.33-12.41-92.91-1.46-6.35-3.15-12.66-4.61-19-.47-2.06-2.07-4.13-.35-6.46,3.52.47,2.91,3.67,3.49,5.71,7.49,26.27,11.43,53.2,14.34,80.29,2.11,19.69,4.35,39.41,3.79,59.25-.47,16.49-2.29,32.77-10,47.85q-10.95,21.48-34.14,27.43a84.74,84.74,0,0,1-39.51.91c-23.41-5.14-34.32-22.67-40.38-43.73C341,273,343.31,237.14,349,201.31c1.29-8.21,3.2-16.34,5.1-24.44C354.67,174.25,354.64,171,359.17,168.43Z"/><path class="cls-4" d="M304.56,221.32c5.63,9.57,1.55,30.78-9.83,36-12.55,5.75-26.89-.08-32.55-13.74a42.76,42.76,0,0,1-2.93-14.8c-.07-1.73-.72-4.53,2.05-4.51,2.2,0,1.67,2.57,1.68,4.13a39.51,39.51,0,0,0,2.57,14.86c3.78,9.31,10.92,13.38,22,12.38,8-.72,13.67-6.44,15.36-15.77.55-3.06.51-6.23.79-9.35C304,227.69,302.84,224.76,304.56,221.32Z"/></g></g></g><g id="Radio"><path class="cls-3" d="M122.63,192.42c10.44-1,13.46,4.63,15.17,14,1,5.55,6.19,32,6.19,41,0,7.12-2.54,13.35-10.46,15.19-9.66,2.25-62.31,12.76-74.16,13.37-4.31.22-13.93-2-17.11-13.71s-5.73-37.59-5.41-42.87c.66-10.73,7.06-18.19,14.86-19.45C66,197.62,111.05,193.51,122.63,192.42Z"/><path class="cls-4" d="M130.15,258.31a40.24,40.24,0,0,1-4.39,1.27l-4.33,1c-3.54.83-7.12,1.48-10.66,2.34-2.83.69-5.75,1.23-8.63,1.84-1.28.27-2.58.54-3.84.85-3.24.77-6.52,1.37-9.78,2.06-1.66.32-3.29.49-4.94.73l-2.49.21c-.82.08-1.65.16-2.5.17l-2.34.05c-.78,0-1.58-.12-2.37-.19-.4,0-.79-.05-1.19-.13l-1.19-.25a13.79,13.79,0,0,1-2.35-.62,16.19,16.19,0,0,1-2.59-1.06,12.68,12.68,0,0,1-2.41-1.48L63,264.2c-.35-.31-.66-.68-1-1s-.66-.68-.95-1.05L60.31,261l-.56-.84c-.17-.29-.3-.59-.46-.89-.29-.6-.6-1.19-.87-1.79a38.33,38.33,0,0,1-1.3-3.68l-.54-1.85-.43-1.87c-.31-1.24-.53-2.48-.76-3.73-.84-4.79-1.48-9.53-2-14.34-.3-3.06-.73-6.19-.93-9.26-.19-3.27-.41-5.33-.41-7.15a16.27,16.27,0,0,1,.81-5c.43-1.15,1-2,1.4-1.81s.4.61.38,1.74a150,150,0,0,0,1,15.33c.53,5.11,1.15,10.24,1.82,15.35a82.34,82.34,0,0,0,2,10.47,22.6,22.6,0,0,0,4.39,9.12,13.94,13.94,0,0,0,8.3,4.42c.4.07.8.17,1.21.22l1.26.1a17.58,17.58,0,0,0,2.52.11c.86,0,1.71,0,2.56,0l2.57-.23c1.23-.07,2.44-.32,3.66-.47.6-.09,1.24-.15,1.81-.27l1.85-.38,7.42-1.53c5.13-1.1,10.32-2.07,15.47-3.11L120.2,258c2.55-.57,5.1-1.07,7.48-1.83A16.41,16.41,0,0,0,134,253a10.34,10.34,0,0,0,3-6,39.26,39.26,0,0,0-.46-11.24c-.57-3.84-1.22-7.7-1.87-11.54-.63-3.65-1.26-7.31-2-10.93s-1.49-7.26-2.3-10.86c-.61-2.7-1-3.64-.29-4,.39-.21,1.13.43,1.8,1.26a7.8,7.8,0,0,1,1.13,3c.65,2.73.79,3.52,1.38,6.25,1.28,5.93,2.18,11.9,3.38,17.85.48,2.42.86,4.9,1.23,7.37a61.18,61.18,0,0,1,1,10.31,19.68,19.68,0,0,1-.76,5.34,11.36,11.36,0,0,1-2.76,4.91A15.78,15.78,0,0,1,130.15,258.31Z"/><rect class="cls-4" x="69.51" y="212.65" width="33.31" height="38.92" rx="15.59" ry="15.59" transform="translate(-32.47 14.8) rotate(-8.27)"/><rect class="cls-4" x="110.84" y="209.87" width="15.81" height="15.81" rx="6.88" ry="6.88" transform="translate(-30.07 19.33) rotate(-8.27)"/><path class="cls-4" d="M115.33,233.59c1.25-.18,6.62-1.3,10.58-1.91a20.66,20.66,0,0,1,3.91-.51c.71.21.53.54.5,1.28s.19.63-.6,1c-.55.24-4.77.82-6.94,1.23s-8.08,1.54-8.71,1.37a1.84,1.84,0,0,1-.76-1.57C113.52,233.89,114.35,233.73,115.33,233.59Z"/><path class="cls-4" d="M123.72,240a52.72,52.72,0,0,1,6.5-.72c1.36,0,1.46,2.34.59,2.58-.65.18-4,.55-7,.87A47.17,47.17,0,0,0,117,244c-1,.24-1.94.59-2.18-.87-.14-.81,0-1.39.95-1.61A79.35,79.35,0,0,1,123.72,240Z"/></g></svg>