<?xml version="1.0" encoding="UTF-8"?>
<svg xmlns="http://www.w3.org/2000/svg" xmlns:xlink="http://www.w3.org/1999/xlink" width="24pt" height="24pt" viewBox="0 0 24 24" version="1.1">
<defs>
<clipPath id="clip1">
  <path d="M 3 2 L 24 2 L 24 24 L 3 24 Z M 3 2 "/>
</clipPath>
<clipPath id="clip2">
  <path d="M 22.492188 5.75 C 21.484375 3.949219 20.070312 2.554688 18.25 1.558594 C 16.425781 0.5625 14.34375 0.0664062 12 0.0664062 C 9.65625 0.0664062 7.574219 0.5625 5.75 1.558594 C 3.925781 2.550781 2.511719 3.949219 1.507812 5.75 C 0.503906 7.550781 0 9.636719 0 12 C 0 14.363281 0.503906 16.449219 1.507812 18.25 C 2.515625 20.050781 3.929688 21.449219 5.75 22.441406 C 7.574219 23.433594 9.65625 23.933594 12 23.933594 C 14.34375 23.933594 16.425781 23.4375 18.25 22.441406 C 20.070312 21.449219 21.484375 20.050781 22.492188 18.25 C 23.496094 16.449219 24 14.363281 24 12 C 24 9.636719 23.496094 7.550781 22.492188 5.75 Z M 22.492188 5.75 "/>
</clipPath>
<clipPath id="clip3">
  <path d="M 16 6 L 23 6 L 23 17 L 16 17 Z M 16 6 "/>
</clipPath>
<clipPath id="clip4">
  <path d="M 22.492188 5.75 C 21.484375 3.949219 20.070312 2.554688 18.25 1.558594 C 16.425781 0.5625 14.34375 0.0664062 12 0.0664062 C 9.65625 0.0664062 7.574219 0.5625 5.75 1.558594 C 3.925781 2.550781 2.511719 3.949219 1.507812 5.75 C 0.503906 7.550781 0 9.636719 0 12 C 0 14.363281 0.503906 16.449219 1.507812 18.25 C 2.515625 20.050781 3.929688 21.449219 5.75 22.441406 C 7.574219 23.433594 9.65625 23.933594 12 23.933594 C 14.34375 23.933594 16.425781 23.4375 18.25 22.441406 C 20.070312 21.449219 21.484375 20.050781 22.492188 18.25 C 23.496094 16.449219 24 14.363281 24 12 C 24 9.636719 23.496094 7.550781 22.492188 5.75 Z M 22.492188 5.75 "/>
</clipPath>
<clipPath id="clip5">
  <path d="M 12 10 L 15 10 L 15 13 L 12 13 Z M 12 10 "/>
</clipPath>
<clipPath id="clip6">
  <path d="M 22.492188 5.75 C 21.484375 3.949219 20.070312 2.554688 18.25 1.558594 C 16.425781 0.5625 14.34375 0.0664062 12 0.0664062 C 9.65625 0.0664062 7.574219 0.5625 5.75 1.558594 C 3.925781 2.550781 2.511719 3.949219 1.507812 5.75 C 0.503906 7.550781 0 9.636719 0 12 C 0 14.363281 0.503906 16.449219 1.507812 18.25 C 2.515625 20.050781 3.929688 21.449219 5.75 22.441406 C 7.574219 23.433594 9.65625 23.933594 12 23.933594 C 14.34375 23.933594 16.425781 23.4375 18.25 22.441406 C 20.070312 21.449219 21.484375 20.050781 22.492188 18.25 C 23.496094 16.449219 24 14.363281 24 12 C 24 9.636719 23.496094 7.550781 22.492188 5.75 Z M 22.492188 5.75 "/>
</clipPath>
</defs>
<g id="surface1">
<path style=" stroke:none;fill-rule:nonzero;fill:rgb(0%,0%,0%);fill-opacity:1;" d="M 22.492188 5.75 C 21.484375 3.949219 20.070312 2.554688 18.25 1.558594 C 16.425781 0.5625 14.34375 0.0664062 12 0.0664062 C 9.65625 0.0664062 7.574219 0.5625 5.75 1.558594 C 3.925781 2.550781 2.511719 3.949219 1.507812 5.75 C 0.503906 7.550781 0 9.636719 0 12 C 0 14.363281 0.503906 16.449219 1.507812 18.25 C 2.515625 20.050781 3.929688 21.449219 5.75 22.441406 C 7.574219 23.433594 9.65625 23.933594 12 23.933594 C 14.34375 23.933594 16.425781 23.4375 18.25 22.441406 C 20.070312 21.449219 21.484375 20.050781 22.492188 18.25 C 23.496094 16.449219 24 14.363281 24 12 C 24 9.636719 23.496094 7.550781 22.492188 5.75 Z M 22.492188 5.75 "/>
<g clip-path="url(#clip1)" clip-rule="nonzero">
<g clip-path="url(#clip2)" clip-rule="nonzero">
<path style=" stroke:none;fill-rule:nonzero;fill:rgb(94.901961%,94.117647%,92.156863%);fill-opacity:1;" d="M 36.21875 9.488281 L 36.21875 9.835938 C 36.089844 9.964844 35.9375 9.980469 35.769531 9.945312 C 35.402344 9.882812 35.042969 9.804688 34.707031 9.636719 C 34.546875 9.554688 34.460938 9.59375 34.484375 9.78125 C 34.582031 10.515625 34.59375 11.257812 34.652344 11.992188 C 34.71875 12.773438 34.726562 13.5625 34.667969 14.347656 C 34.617188 15.027344 34.617188 15.707031 34.574219 16.386719 C 34.484375 17.792969 34.390625 19.199219 34.296875 20.601562 C 34.242188 21.386719 34.1875 22.167969 34.132812 22.953125 C 34.09375 23.492188 34.070312 24.035156 33.992188 24.574219 C 33.984375 24.703125 33.921875 24.820312 33.828125 24.90625 C 33.617188 25.007812 33.394531 24.960938 33.179688 24.953125 C 33.019531 24.949219 32.917969 24.867188 32.941406 24.691406 C 32.828125 24.960938 32.667969 25.011719 32.183594 24.960938 C 31.949219 24.9375 31.890625 24.8125 31.90625 24.632812 C 31.925781 24.824219 31.851562 24.957031 31.613281 24.960938 C 30.578125 24.972656 30.691406 25.019531 30.6875 24.125 C 30.6875 23.324219 30.675781 22.523438 30.695312 21.726562 C 30.707031 21.167969 30.597656 20.621094 30.609375 20.0625 C 30.617188 19.734375 30.492188 19.632812 30.164062 19.609375 C 29.933594 19.59375 29.699219 19.605469 29.46875 19.609375 C 29.234375 19.617188 29.09375 19.734375 29.09375 19.972656 C 29.09375 20.414062 29.050781 20.855469 29.128906 21.292969 C 28.992188 22.386719 29.136719 23.492188 28.988281 24.585938 C 28.925781 25.0625 28.265625 25.351562 27.863281 25.070312 C 27.792969 25.027344 27.753906 24.949219 27.765625 24.867188 C 27.773438 24.730469 27.765625 24.589844 27.765625 24.453125 C 27.773438 25.035156 27.726562 25.121094 27.351562 25.132812 C 27.136719 25.140625 26.871094 25.214844 26.75 24.980469 C 26.652344 24.796875 26.753906 24.554688 26.707031 24.363281 C 26.75 24.417969 26.71875 24.5 26.722656 24.578125 C 26.726562 25.035156 26.652344 25.128906 26.265625 25.136719 C 25.835938 25.148438 25.648438 24.996094 25.644531 24.582031 C 25.628906 23.121094 25.640625 21.660156 25.636719 20.199219 C 25.636719 20.082031 25.636719 19.96875 25.632812 19.851562 C 25.625 19.683594 25.554688 19.613281 25.367188 19.621094 C 24.292969 19.675781 23.214844 19.632812 22.136719 19.648438 C 21.699219 19.652344 21.707031 19.675781 21.730469 20.109375 C 21.769531 20.917969 21.875 21.71875 21.894531 22.53125 C 21.914062 23.132812 22.023438 23.726562 22.027344 24.328125 C 22.03125 24.898438 21.925781 24.996094 21.363281 25 C 21.292969 25 21.226562 25 21.15625 25 C 20.703125 24.992188 20.671875 24.957031 20.667969 24.496094 C 20.667969 24.957031 20.601562 25.015625 20.078125 25 C 19.640625 24.988281 19.613281 24.949219 19.636719 24.359375 C 19.609375 24.992188 19.554688 25.042969 18.925781 25 C 18.574219 24.972656 18.402344 24.832031 18.414062 24.476562 C 18.433594 23.65625 18.304688 22.835938 18.335938 22.015625 C 18.359375 21.375 18.285156 20.742188 18.265625 20.105469 C 18.257812 19.863281 18.144531 19.78125 17.914062 19.789062 C 17.664062 19.800781 17.632812 19.964844 17.65625 20.152344 C 17.820312 21.40625 17.617188 22.675781 17.78125 23.933594 C 17.800781 24.164062 17.800781 24.394531 17.78125 24.628906 C 17.757812 24.964844 17.617188 25.105469 17.285156 25.136719 C 17.179688 25.144531 17.078125 25.140625 16.972656 25.140625 C 16.339844 25.140625 16.320312 25.121094 16.320312 24.507812 C 16.320312 25.070312 16.265625 25.140625 15.8125 25.136719 C 15.363281 25.136719 15.28125 25.039062 15.277344 24.542969 C 15.269531 25.054688 15.203125 25.140625 14.804688 25.136719 C 14.394531 25.136719 14.246094 24.976562 14.230469 24.53125 C 14.179688 23.246094 14.328125 21.960938 14.304688 20.675781 C 14.296875 20.578125 14.3125 20.480469 14.351562 20.386719 C 13.902344 21.175781 13.292969 21.863281 12.5625 22.402344 C 11.21875 23.394531 9.628906 23.414062 8.195312 22.542969 C 7.011719 21.824219 6.167969 20.792969 5.472656 19.628906 C 4.414062 17.859375 3.742188 15.929688 3.402344 13.886719 C 3.382812 13.761719 3.371094 13.632812 3.359375 13.507812 C 3.335938 13.285156 3.429688 13.113281 3.644531 13.046875 C 4.214844 12.859375 4.792969 12.683594 5.382812 12.566406 C 5.707031 12.503906 5.855469 12.628906 5.933594 13.035156 C 6.082031 13.878906 6.300781 14.710938 6.578125 15.519531 C 6.945312 16.574219 7.359375 17.605469 8.074219 18.484375 C 8.324219 18.800781 8.648438 19.058594 9.019531 19.226562 C 9.84375 19.597656 10.714844 19.15625 10.882812 18.269531 C 11.03125 17.464844 10.976562 16.65625 10.871094 15.847656 C 10.667969 14.277344 10.347656 12.71875 10.21875 11.140625 C 10.101562 9.734375 10.046875 8.320312 10.480469 6.941406 C 10.933594 5.488281 11.871094 4.480469 13.316406 3.96875 C 13.664062 3.847656 16.253906 3.15625 16.691406 3.070312 C 17.484375 2.914062 18.988281 2.734375 19.894531 2.660156 C 20.820312 2.582031 21.707031 2.566406 21.707031 2.566406 C 21.707031 2.566406 23.863281 2.578125 25.84375 2.765625 C 27.605469 2.929688 29.292969 3.324219 29.527344 3.347656 C 31.160156 3.742188 32.488281 4.558594 33.324219 6.0625 C 33.535156 6.433594 33.765625 6.808594 33.847656 7.230469 C 34.0625 8.269531 34.796875 8.792969 35.695312 9.171875 C 35.882812 9.253906 36.097656 9.296875 36.21875 9.488281 Z M 36.21875 9.488281 "/>
</g>
</g>
<g clip-path="url(#clip3)" clip-rule="nonzero">
<g clip-path="url(#clip4)" clip-rule="nonzero">
<path style=" stroke:none;fill-rule:nonzero;fill:rgb(5.098039%,5.098039%,5.098039%);fill-opacity:1;" d="M 17.238281 8.085938 C 17.125 8.636719 17.007812 9.113281 16.929688 9.601562 C 16.65625 11.296875 16.554688 12.992188 16.984375 14.683594 C 17.082031 15.0625 17.234375 15.421875 17.445312 15.75 C 17.796875 16.292969 18.269531 16.660156 18.921875 16.757812 C 19.515625 16.851562 20.105469 16.84375 20.6875 16.6875 C 21.585938 16.449219 22.121094 15.84375 22.390625 14.980469 C 22.703125 13.988281 22.683594 12.96875 22.605469 11.957031 C 22.488281 10.460938 22.34375 8.964844 22.007812 7.496094 C 21.9375 7.191406 21.855469 6.890625 21.789062 6.585938 C 21.765625 6.484375 21.6875 6.386719 21.769531 6.273438 C 21.9375 6.296875 21.910156 6.453125 21.9375 6.550781 C 22.296875 7.808594 22.488281 9.101562 22.625 10.402344 C 22.726562 11.347656 22.835938 12.292969 22.808594 13.246094 C 22.785156 14.039062 22.699219 14.820312 22.328125 15.542969 C 21.976562 16.230469 21.429688 16.671875 20.6875 16.859375 C 20.070312 17.023438 19.417969 17.039062 18.792969 16.902344 C 17.667969 16.65625 17.144531 15.816406 16.855469 14.804688 C 16.367188 13.105469 16.480469 11.382812 16.753906 9.664062 C 16.8125 9.269531 16.90625 8.878906 16.996094 8.488281 C 17.023438 8.363281 17.023438 8.207031 17.238281 8.085938 Z M 17.238281 8.085938 "/>
</g>
</g>
<g clip-path="url(#clip5)" clip-rule="nonzero">
<g clip-path="url(#clip6)" clip-rule="nonzero">
<path style=" stroke:none;fill-rule:nonzero;fill:rgb(5.098039%,5.098039%,5.098039%);fill-opacity:1;" d="M 14.617188 10.625 C 14.890625 11.082031 14.691406 12.101562 14.148438 12.351562 C 13.542969 12.628906 12.855469 12.347656 12.585938 11.691406 C 12.496094 11.464844 12.449219 11.226562 12.445312 10.980469 C 12.441406 10.898438 12.410156 10.765625 12.542969 10.765625 C 12.648438 10.765625 12.621094 10.886719 12.621094 10.964844 C 12.617188 11.207031 12.660156 11.449219 12.746094 11.675781 C 12.929688 12.125 13.269531 12.320312 13.800781 12.269531 C 14.1875 12.234375 14.457031 11.960938 14.539062 11.515625 C 14.566406 11.367188 14.5625 11.214844 14.578125 11.066406 C 14.59375 10.929688 14.535156 10.789062 14.617188 10.625 Z M 14.617188 10.625 "/>
</g>
</g>
<path style=" stroke:none;fill-rule:nonzero;fill:rgb(94.901961%,94.117647%,92.156863%);fill-opacity:1;" d="M 5.886719 9.238281 C 6.386719 9.1875 6.53125 9.464844 6.609375 9.929688 C 6.660156 10.207031 6.898438 11.53125 6.898438 11.980469 C 6.898438 12.335938 6.773438 12.648438 6.394531 12.742188 C 5.929688 12.855469 3.398438 13.394531 2.828125 13.429688 C 2.621094 13.441406 2.160156 13.332031 2.007812 12.746094 C 1.859375 12.164062 1.742188 10.871094 1.757812 10.605469 C 1.792969 10.070312 2.101562 9.691406 2.480469 9.628906 C 3.164062 9.511719 5.328125 9.292969 5.886719 9.238281 Z M 5.886719 9.238281 "/>
<path style=" stroke:none;fill-rule:nonzero;fill:rgb(5.098039%,5.098039%,5.098039%);fill-opacity:1;" d="M 6.097656 12.289062 C 6.03125 12.3125 5.960938 12.332031 5.894531 12.347656 L 5.695312 12.394531 C 5.53125 12.433594 5.367188 12.464844 5.203125 12.503906 C 5.074219 12.535156 4.9375 12.558594 4.808594 12.585938 C 4.746094 12.601562 4.6875 12.613281 4.628906 12.625 C 4.480469 12.664062 4.328125 12.691406 4.179688 12.722656 C 4.101562 12.738281 4.027344 12.746094 3.953125 12.757812 L 3.835938 12.765625 C 3.800781 12.769531 3.761719 12.773438 3.722656 12.773438 L 3.613281 12.777344 C 3.578125 12.777344 3.542969 12.769531 3.503906 12.765625 C 3.488281 12.765625 3.46875 12.765625 3.449219 12.761719 L 3.394531 12.75 C 3.359375 12.742188 3.324219 12.734375 3.289062 12.722656 C 3.246094 12.707031 3.207031 12.691406 3.167969 12.671875 C 3.128906 12.652344 3.089844 12.628906 3.054688 12.605469 L 3.003906 12.5625 C 2.988281 12.550781 2.972656 12.53125 2.960938 12.515625 C 2.945312 12.5 2.929688 12.484375 2.914062 12.46875 L 2.878906 12.414062 L 2.855469 12.375 C 2.847656 12.363281 2.839844 12.347656 2.832031 12.335938 C 2.820312 12.304688 2.804688 12.277344 2.792969 12.25 C 2.769531 12.195312 2.75 12.140625 2.734375 12.082031 L 2.707031 11.996094 L 2.6875 11.910156 C 2.675781 11.851562 2.664062 11.792969 2.652344 11.738281 C 2.613281 11.515625 2.585938 11.296875 2.5625 11.074219 C 2.550781 10.933594 2.527344 10.785156 2.519531 10.644531 C 2.511719 10.496094 2.5 10.402344 2.5 10.316406 C 2.5 10.238281 2.515625 10.160156 2.539062 10.082031 C 2.558594 10.03125 2.585938 9.988281 2.601562 10 C 2.621094 10.011719 2.621094 10.027344 2.621094 10.082031 C 2.625 10.316406 2.640625 10.554688 2.667969 10.789062 C 2.691406 11.023438 2.722656 11.261719 2.753906 11.496094 C 2.773438 11.660156 2.804688 11.824219 2.84375 11.980469 C 2.878906 12.136719 2.949219 12.28125 3.046875 12.402344 C 3.148438 12.515625 3.28125 12.585938 3.429688 12.605469 C 3.449219 12.609375 3.46875 12.617188 3.484375 12.617188 L 3.542969 12.621094 C 3.582031 12.625 3.621094 12.628906 3.660156 12.628906 C 3.699219 12.628906 3.738281 12.628906 3.777344 12.625 L 3.898438 12.613281 C 3.953125 12.609375 4.007812 12.597656 4.066406 12.59375 C 4.09375 12.589844 4.121094 12.585938 4.148438 12.578125 L 4.234375 12.5625 L 4.574219 12.492188 C 4.8125 12.441406 5.050781 12.394531 5.289062 12.347656 L 5.640625 12.273438 C 5.757812 12.246094 5.875 12.226562 5.984375 12.191406 C 6.09375 12.164062 6.191406 12.113281 6.277344 12.042969 C 6.351562 11.96875 6.402344 11.871094 6.414062 11.765625 C 6.433594 11.589844 6.425781 11.414062 6.394531 11.246094 C 6.367188 11.066406 6.335938 10.890625 6.304688 10.710938 C 6.277344 10.542969 6.25 10.375 6.214844 10.207031 C 6.179688 10.039062 6.144531 9.871094 6.109375 9.703125 C 6.082031 9.578125 6.0625 9.535156 6.09375 9.519531 C 6.113281 9.507812 6.148438 9.539062 6.179688 9.578125 C 6.203125 9.617188 6.222656 9.664062 6.230469 9.714844 C 6.261719 9.839844 6.265625 9.878906 6.292969 10.003906 C 6.351562 10.277344 6.394531 10.550781 6.449219 10.828125 C 6.472656 10.9375 6.488281 11.054688 6.507812 11.167969 C 6.535156 11.324219 6.550781 11.484375 6.550781 11.644531 C 6.550781 11.726562 6.539062 11.8125 6.515625 11.890625 C 6.492188 11.976562 6.449219 12.054688 6.390625 12.117188 C 6.304688 12.199219 6.207031 12.257812 6.097656 12.289062 Z M 6.097656 12.289062 "/>
<path style=" stroke:none;fill-rule:nonzero;fill:rgb(5.098039%,5.098039%,5.098039%);fill-opacity:1;" d="M 4.246094 12.058594 L 4.152344 12.074219 C 3.761719 12.132812 3.394531 11.847656 3.335938 11.441406 L 3.285156 11.070312 C 3.230469 10.664062 3.503906 10.285156 3.894531 10.222656 L 3.988281 10.210938 C 4.378906 10.148438 4.746094 10.433594 4.800781 10.84375 L 4.855469 11.210938 C 4.910156 11.617188 4.636719 12 4.246094 12.058594 Z M 4.246094 12.058594 "/>
<path style=" stroke:none;fill-rule:nonzero;fill:rgb(5.098039%,5.098039%,5.098039%);fill-opacity:1;" d="M 5.667969 10.820312 L 5.574219 10.835938 C 5.488281 10.847656 5.402344 10.824219 5.335938 10.769531 C 5.265625 10.71875 5.222656 10.640625 5.214844 10.554688 L 5.199219 10.460938 C 5.171875 10.285156 5.292969 10.117188 5.46875 10.085938 L 5.5625 10.070312 C 5.648438 10.0625 5.734375 10.085938 5.800781 10.136719 C 5.867188 10.1875 5.914062 10.265625 5.921875 10.351562 L 5.9375 10.445312 C 5.964844 10.625 5.84375 10.789062 5.667969 10.820312 Z M 5.667969 10.820312 "/>
<path style=" stroke:none;fill-rule:nonzero;fill:rgb(5.098039%,5.098039%,5.098039%);fill-opacity:1;" d="M 5.410156 11.210938 C 5.46875 11.203125 5.71875 11.148438 5.898438 11.121094 C 5.957031 11.105469 6.019531 11.097656 6.078125 11.097656 C 6.113281 11.105469 6.101562 11.121094 6.101562 11.15625 C 6.101562 11.191406 6.109375 11.1875 6.074219 11.207031 C 6.050781 11.21875 5.855469 11.246094 5.753906 11.265625 C 5.65625 11.285156 5.382812 11.339844 5.351562 11.332031 C 5.332031 11.3125 5.316406 11.285156 5.320312 11.253906 C 5.328125 11.226562 5.367188 11.21875 5.410156 11.210938 Z M 5.410156 11.210938 "/>
<path style=" stroke:none;fill-rule:nonzero;fill:rgb(5.098039%,5.098039%,5.098039%);fill-opacity:1;" d="M 5.9375 11.519531 C 6.042969 11.503906 6.144531 11.492188 6.25 11.484375 C 6.316406 11.484375 6.320312 11.597656 6.277344 11.609375 C 6.246094 11.617188 6.085938 11.636719 5.941406 11.652344 C 5.832031 11.664062 5.722656 11.683594 5.617188 11.710938 C 5.566406 11.722656 5.523438 11.742188 5.511719 11.671875 C 5.503906 11.632812 5.511719 11.605469 5.558594 11.59375 C 5.683594 11.5625 5.808594 11.539062 5.9375 11.519531 Z M 5.9375 11.519531 "/>
</g>
</svg>
