<?xml version="1.0" encoding="utf-8"?>
<!-- Generator: Adobe Illustrator 22.1.0, SVG Export Plug-In . SVG Version: 6.00 Build 0)  -->
<svg version="1.1" id="Layer_1" xmlns="http://www.w3.org/2000/svg" xmlns:xlink="http://www.w3.org/1999/xlink" x="0px" y="0px"
	 viewBox="0 0 24 24" style="enable-background:new 0 0 24 24;" xml:space="preserve">
<style type="text/css">
	.st0{fill:none;}
</style>
<path class="st0" d="M0,0h22.4v22.4H0V0z"/>
<path d="M4.5,13.2v1.7c0,0.9,0.7,1.7,1.6,1.7l0.1,0h2.6v1.7H6.2c-1.9,0-3.5-1.6-3.5-3.5v-1.7H4.5z"/>
<path d="M14.9,2.8c1.9,0,3.5,1.6,3.5,3.5V8h-1.7V6.2c0-1-0.8-1.7-1.7-1.7h-2.6V2.8H14.9z"/>
<g>
	<path d="M2.4,8.4c0-0.5,0.1-0.9,0.2-1.3c0.2-0.3,0.4-0.6,0.8-0.8L2,5.4V4.1c0.6-0.5,1.2-0.9,2-1.2c0.7-0.3,1.6-0.4,2.4-0.4
		c1.4,0,2.5,0.3,3.2,0.9c0.7,0.6,1.1,1.4,1.1,2.5v6.4H8.7V5.8c0-0.6-0.2-1.1-0.6-1.5C7.7,4,7.2,3.8,6.4,3.8c-1,0-1.9,0.3-2.6,0.8
		v0.2l1.5,0.9v0.8C4.9,6.8,4.7,7,4.5,7.2C4.4,7.5,4.3,7.9,4.3,8.3v3.9H2.4V8.4z"/>
</g>
<polygon points="16.6,22.6 12.9,18.9 14.2,17.7 16.6,20.1 21.5,15.2 22.7,16.5 "/>
<g>
	<path d="M16.6,15.8l0.8,1.9l1.3-1.3l-3-7.5H14l-3.8,9.5H12l1-2.6H16.6z M14.9,11.3l1.1,2.7h-2.2L14.9,11.3z"/>
	<polygon points="19.2,18.4 19.5,18.4 19.4,18.1 	"/>
</g>
</svg>
