<svg height="511pt" viewBox="0 0 511 511.99898" width="511pt" xmlns="http://www.w3.org/2000/svg"><path d="m510.121094 257.1875c0 51.847656-15.472656 100.0625-42.078125 140.300781-3.339844 5.054688-6.855469 9.976563-10.527344 14.761719-3.734375 4.867188-7.644531 9.609375-11.730469 14.183594-3.453125 3.890625-7.03125 7.675781-10.722656 11.347656-4.410156 4.390625-8.984375 8.621094-13.707031 12.6875-44.597657 38.359375-102.613281 61.53125-166.042969 61.53125-63.433594 0-121.449219-23.171875-166.042969-61.53125-4.734375-4.066406-9.308593-8.296875-13.71875-12.699219-7.914062-7.871093-15.3125-16.265625-22.121093-25.117187-.105469-.132813-.21875-.28125-.324219-.414063-7.601563-9.890625-14.488281-20.363281-20.59375-31.328125-20.394531-36.628906-32.011719-78.824218-32.011719-123.722656 0-140.726562 114.082031-254.8125 254.8125-254.8125 140.726562 0 254.808594 114.085938 254.808594 254.8125zm0 0" fill="#6ccfcb"/><path d="m215.871094 137.417969c-3.363282-9.769531 13.679687-30.246094 7.78125-38.074219-6.113282-8.113281-30.582032 2.679688-38.734375-3.019531-8.234375-5.753907-6.492188-32.414063-16.097657-35.359375-9.511718-2.914063-22.964843 20.109375-33.121093 20.289062-9.800781.171875-24.035157-22.480468-33.804688-19.117187-9.765625 3.363281-7.039062 29.976562-14.867187 35.875-8.113282 6.113281-32.890625-3.746094-38.589844 4.40625-5.753906 8.234375 12.027344 28.167969 9.082031 37.773437-2.914062 9.511719-28.84375 16.070313-28.664062 26.226563.171875 9.800781 26.210937 15.445312 29.574219 25.214843 3.363281 9.769532-13.679688 30.246094-7.78125 38.074219 6.113281 8.113281 30.582031-2.679687 38.734374 3.019531 8.234376 5.753907 6.492188 32.414063 16.097657 35.359376 9.511719 2.914062 22.964843-20.109376 33.121093-20.289063 9.800782-.171875 24.035157 22.480469 33.804688 19.117187 9.769531-3.363281 7.039062-29.976562 14.867188-35.875 8.117187-6.113281 32.890624 3.746094 38.589843-4.40625 5.753907-8.234374-12.027343-28.167968-9.082031-37.773437 2.914062-9.511719 28.84375-16.070313 28.664062-26.226563-.171874-9.800781-26.210937-15.445312-29.574218-25.214843zm0 0" fill="#a1edda"/><path d="m411.851562 57.511719c-3.363281-7.324219 13.679688-22.675781 7.78125-28.546875-6.113281-6.085938-30.582031 2.007812-38.734374-2.265625-8.234376-4.3125-6.492188-24.300781-16.097657-26.507813-9.511719-2.1875-22.964843 15.074219-33.121093 15.210938-9.800782.128906-24.035157-16.855469-33.804688-14.332032-9.769531 2.519532-7.039062 22.472657-14.867188 26.894532-8.117187 4.582031-32.890624-2.808594-38.589843 3.304687-5.753907 6.171875 12.027343 21.121094 9.082031 28.320313-2.914062 7.128906-28.84375 12.046875-28.664062 19.664062.171874 7.347656 26.210937 11.578125 29.574218 18.902344 3.363282 7.324219-13.679687 22.679688-7.78125 28.546875 6.109375 6.085937 30.582032-2.007813 38.734375 2.265625 8.234375 4.3125 6.492188 24.300781 16.097657 26.507812 9.511718 2.1875 22.964843-15.074218 33.121093-15.207031 9.800781-.132812 24.035157 16.851563 33.804688 14.328125 9.765625-2.519531 7.039062-22.472656 14.867187-26.894531 8.113282-4.582031 32.890625 2.808594 38.589844-3.304687 5.753906-6.171876-12.027344-21.121094-9.082031-28.320313 2.914062-7.128906 28.84375-12.046875 28.664062-19.664063-.175781-7.34375-26.210937-11.578124-29.574219-18.902343zm0 0" fill="#a1edda"/><path d="m204.257812 310.511719-203.285156-50.585938 44.386719-104.511719c3.03125-12.183593 23.136719-18.453124 50.355469-17.574218 12.796875.421875 27.15625 2.417968 42.054687 6.125 46.578125 11.589844 80.71875 35.507812 76.257813 53.421875zm0 0" fill="#f76cae"/><path d="m95.714844 137.839844-36.421875 118.710937-21.316407 12.582031-37.003906-9.207031 44.386719-104.511719c3.03125-12.1875 23.136719-18.453124 50.355469-17.574218zm0 0" fill="#c92888"/><path d="m215.328125 222.410156c-2.546875-.636718-4.101563-3.214844-3.464844-5.765625 1.585938-6.371093-5.546875-15.523437-19.078125-24.484375-15.304687-10.132812-36.898437-18.988281-60.804687-24.9375-23.90625-5.949218-47.132813-8.246094-65.398438-6.46875-16.152343 1.574219-26.742187 6.316406-28.328125 12.6875-.636718 2.550782-3.214844 4.101563-5.765625 3.46875-2.546875-.636718-4.101562-3.214844-3.464843-5.765625 2.679687-10.765625 15.691406-17.816406 36.636718-19.855469 19.316406-1.882812 43.6875.5 68.617188 6.703126 24.933594 6.203124 47.574218 15.523437 63.757812 26.238281 17.546875 11.617187 25.738282 23.945312 23.058594 34.710937-.636719 2.550782-3.21875 4.101563-5.765625 3.46875zm0 0" fill="#f2efea"/><path d="m206.863281 287.214844c-2.546875-.632813-4.097656-3.214844-3.464843-5.761719 3.574218-14.371094-31.050782-39.992187-86.460938-53.78125-55.410156-13.785156-98.007812-7.386719-101.582031 6.984375-.636719 2.550781-3.214844 4.101562-5.765625 3.46875-2.550782-.636719-4.101563-3.214844-3.464844-5.765625 2.847656-11.449219 16.769531-18.957031 39.199219-21.140625 20.800781-2.027344 47.050781.539062 73.910156 7.222656 26.859375 6.6875 51.246094 16.71875 68.671875 28.257813 18.792969 12.441406 27.570312 25.601562 24.722656 37.050781-.632812 2.546875-3.214844 4.101562-5.765625 3.464844zm0 0" fill="#f2efea"/><path d="m204.257812 310.511719c-5.375 21.589843-55.234374 27.769531-111.367187 13.800781-56.140625-13.972656-97.292969-42.796875-91.917969-64.386719.730469-2.945312 2.292969-5.605469 4.585938-7.957031 14.5-14.945312 58.300781-17.90625 106.785156-5.839844 48.480469 12.066406 85.78125 35.207032 91.589844 55.207032.921875 3.148437 1.054687 6.234374.324218 9.175781zm0 0" fill="#c92888"/><path d="m203.933594 301.335938c-13.378906 13.785156-51.726563 17.375-95.683594 8.359374-3.664062-.753906-7.363281-1.597656-11.09375-2.523437-48.488281-12.066406-85.789062-35.210937-91.597656-55.203125 14.503906-14.945312 58.300781-17.90625 106.789062-5.839844 1.625.40625 3.234375.824219 4.832032 1.253906 46.113281 12.355469 81.144531 34.621094 86.753906 53.953126zm0 0" fill="#f2efea"/><path d="m203.933594 301.335938c-13.378906 13.785156-51.726563 17.375-95.683594 8.359374-23.054688-13.316406-36.296875-28.707031-33.105469-41.535156.734375-2.945312 2.296875-5.605468 4.585938-7.957031 6.832031-7.042969 20.175781-11.425781 37.453125-12.824219 46.109375 12.359375 81.140625 34.625 86.75 53.957032zm0 0" fill="#fff"/><path d="m509.65625 259.929688-162.6875 40.488281-40.601562 10.097656-9.777344-113.125c-3.347656-13.488281 15.175781-30.390625 44.429687-42.859375 9.589844-4.089844 20.335938-7.707031 31.835938-10.566406 14.894531-3.703125 29.257812-5.699219 42.050781-6.128906 27.21875-.871094 47.320312 5.390624 50.359375 17.578124zm0 0" fill="#f76cae"/><path d="m374.230469 283.464844-27.261719 16.953125-40.601562 10.097656-9.777344-113.125c-3.347656-13.488281 15.175781-30.390625 44.429687-42.859375zm0 0" fill="#c92888"/><path d="m295.292969 222.410156c2.550781-.636718 4.101562-3.214844 3.46875-5.765625-1.585938-6.371093 5.546875-15.523437 19.078125-24.484375 15.300781-10.132812 36.894531-18.988281 60.800781-24.9375 23.910156-5.949218 47.132813-8.246094 65.402344-6.46875 16.152343 1.574219 26.742187 6.316406 28.328125 12.6875.632812 2.550782 3.214844 4.101563 5.765625 3.46875 2.546875-.636718 4.097656-3.214844 3.464843-5.765625-2.679687-10.765625-15.691406-17.816406-36.640624-19.855469-19.316407-1.882812-43.683594.5-68.617188 6.703126-24.929688 6.203124-47.574219 15.523437-63.753906 26.238281-17.550782 11.617187-25.738282 23.945312-23.058594 34.710937.632812 2.550782 3.214844 4.101563 5.761719 3.46875zm0 0" fill="#f2efea"/><path d="m303.757812 287.214844c2.550782-.632813 4.101563-3.214844 3.464844-5.761719-3.574218-14.371094 31.054688-39.992187 86.460938-53.78125 55.410156-13.785156 98.007812-7.386719 101.585937 6.984375.632813 2.550781 3.214844 4.101562 5.761719 3.46875 2.550781-.636719 4.101562-3.214844 3.46875-5.765625-2.851562-11.449219-16.773438-18.957031-39.203125-21.140625-20.800781-2.027344-47.050781.539062-73.90625 7.222656-26.859375 6.6875-51.25 16.71875-68.675781 28.257813-18.789063 12.441406-27.570313 25.601562-24.722656 37.050781.636718 2.546875 3.21875 4.101562 5.765624 3.464844zm0 0" fill="#f2efea"/><path d="m306.367188 310.511719c5.371093 21.589843 55.234374 27.769531 111.363281 13.800781 56.140625-13.972656 97.292969-42.796875 91.921875-64.386719-.734375-2.945312-2.296875-5.605469-4.585938-7.957031-14.503906-14.945312-58.300781-17.90625-106.789062-5.839844-48.480469 12.066406-85.78125 35.207032-91.585938 55.207032-.921875 3.148437-1.058594 6.234374-.324218 9.175781zm0 0" fill="#c92888"/><path d="m505.066406 251.972656c-5.8125 19.988282-43.109375 43.128906-91.59375 55.195313-3.734375.933593-7.4375 1.777343-11.097656 2.527343-10.933594 2.234376-21.519531 3.703126-31.460938 4.417969-30.027343 2.183594-54.179687-2.421875-64.222656-12.78125 5.605469-19.335937 40.632813-41.589843 86.75-53.945312 1.601563-.4375 3.210938-.855469 4.835938-1.261719 17.054687-4.242188 33.53125-6.632812 48.359375-7.277344 27.3125-1.21875 49.027343 3.441406 58.429687 13.125zm0 0" fill="#f2efea"/><path d="m505.066406 251.972656c-5.8125 19.988282-43.109375 43.128906-91.59375 55.195313-3.734375.933593-7.4375 1.777343-11.097656 2.527343-10.933594 2.234376-21.519531 3.703126-31.460938 4.417969-5.492187-3.273437-9.089843-7.433593-10.328124-12.40625-.738282-2.945312-.605469-6.03125.320312-9.183593 5.566406-19.1875 40.117188-41.269532 85.730469-53.675782 27.3125-1.21875 49.027343 3.441406 58.429687 13.125zm0 0" fill="#fff"/><path d="m369.832031 362.722656h-229.046875l19.5-122.609375c0-13.730469 19.679688-25.691406 48.789063-31.941406 13.6875-2.933594 29.453125-4.605469 46.238281-4.605469 52.484375 0 95.019531 16.359375 95.019531 36.546875zm0 0" fill="#f76cae"/><path d="m209.074219 208.171875-7.300781 135.570313-19.292969 18.980468h-41.695313l19.5-122.609375c0-13.730469 19.679688-25.691406 48.789063-31.941406zm0 0" fill="#c92888"/><path d="m358.320312 266.316406c-2.875 0-5.203124-2.328125-5.203124-5.199218 0-7.179688-9.984376-15.007813-26.707032-20.941407-18.910156-6.710937-44.160156-10.402343-71.097656-10.402343s-52.1875 3.695312-71.097656 10.402343c-16.726563 5.933594-26.710938 13.761719-26.710938 20.941407 0 2.871093-2.328125 5.199218-5.199218 5.199218-2.871094 0-5.199219-2.328125-5.199219-5.199218 0-12.128907 11.941406-23.046876 33.628906-30.742188 20-7.097656 46.484375-11.003906 74.578125-11.003906 28.089844 0 54.574219 3.90625 74.574219 11.003906 21.6875 7.695312 33.632812 18.613281 33.632812 30.742188 0 2.871093-2.328125 5.199218-5.199219 5.199218zm0 0" fill="#f2efea"/><path d="m366.449219 337.316406c-2.871094 0-5.199219-2.328125-5.199219-5.199218 0-16.191407-43.507812-34.234376-105.9375-34.234376s-105.9375 18.042969-105.9375 34.234376c0 2.871093-2.332031 5.199218-5.203125 5.199218s-5.199219-2.328125-5.199219-5.199218c0-12.902344 12.789063-24.546876 36.011719-32.785157 21.539063-7.640625 50.0625-11.847656 80.328125-11.847656 30.261719 0 58.789062 4.207031 80.324219 11.847656 23.222656 8.238281 36.011719 19.882813 36.011719 32.785157.003906 2.871093-2.328126 5.199218-5.199219 5.199218zm0 0" fill="#f2efea"/><path d="m369.832031 362.722656c0 24.328125-51.273437 44.046875-114.519531 44.046875-63.253906 0-114.527344-19.71875-114.527344-44.046875 0-3.316406.957032-6.550781 2.765625-9.652344 11.441407-19.6875 57.128907-34.394531 111.761719-34.394531 54.625 0 100.3125 14.707031 111.753906 34.394531 1.808594 3.101563 2.765625 6.335938 2.765625 9.652344zm0 0" fill="#c92888"/><path d="m367.066406 353.070312c-10.554687 18.160157-50.296875 32.097657-99.3125 34.136719-4.089844.164063-8.238281.25-12.441406.25-54.632812 0-100.320312-14.707031-111.761719-34.386719 11.441407-19.6875 57.128907-34.394531 111.761719-34.394531 1.832031 0 3.652344.023438 5.460938.054688 52.191406.933593 95.238281 15.308593 106.292968 34.339843zm0 0" fill="#f2efea"/><path d="m367.066406 353.070312c-10.554687 18.160157-50.296875 32.097657-99.3125 34.136719-27.976562-8.039062-46.09375-20.875-46.09375-35.332031 0-3.316406.957032-6.550781 2.765625-9.652344 5.386719-9.277344 18.386719-17.449218 36.347657-23.492187 52.191406.933593 95.238281 15.308593 106.292968 34.339843zm0 0" fill="#fff"/><path d="m457.515625 412.25c-6.90625 9.003906-14.414063 17.535156-22.453125 25.53125-4.410156 4.390625-8.984375 8.621094-13.707031 12.6875-44.597657 38.359375-102.613281 61.53125-166.042969 61.53125-63.433594 0-121.449219-23.171875-166.042969-61.53125-4.734375-4.066406-9.308593-8.296875-13.71875-12.699219-8.039062-7.996093-15.539062-16.523437-22.445312-25.53125 19.957031-93.335937 102.914062-163.308593 202.207031-163.308593s182.234375 69.984374 202.203125 163.320312zm0 0" fill="#2f373b"/><path d="m435.0625 437.78125c-4.410156 4.390625-8.984375 8.621094-13.707031 12.6875-44.597657 38.359375-102.613281 61.53125-166.042969 61.53125-63.433594 0-121.449219-23.171875-166.042969-61.53125-4.734375-4.066406-9.308593-8.296875-13.71875-12.699219 9.003907-91.335937 86.042969-162.691406 179.761719-162.691406 93.707031 0 170.753906 71.355469 179.75 162.703125zm0 0" fill="#d8d4ce"/><path d="m421.355469 450.46875c-28.132813 24.203125-61.601563 42.351562-98.410157 52.460938-16.640624 4.566406-33.96875 7.488281-51.785156 8.582031-5.242187.320312-10.523437.488281-15.847656.488281-5.328125 0-10.609375-.167969-15.851562-.488281-17.816407-1.09375-35.144532-4.015625-51.785157-8.582031-36.804687-10.109376-70.273437-28.257813-98.40625-52.460938 2.765625-89.316406 76.046875-160.882812 166.042969-160.882812 89.984375 0 163.277344 71.566406 166.042969 160.882812zm0 0" fill="#f2efea"/><path d="m211.253906 53.1875c0-19.367188-46.101562-35.066406-102.972656-35.066406s-102.972656 15.699218-102.972656 35.066406c0 19.363281 46.101562 35.066406 102.972656 35.066406s102.972656-15.703125 102.972656-35.066406zm0 0" fill="#ff9c40"/><path d="m207.675781 90.046875c2.851563-19.15625-40.441406-41.46875-96.691406-49.832031-56.25-8.367188-104.160156.378906-107.007813 19.535156-2.847656 19.15625 40.441407 41.464844 96.691407 49.832031 56.25 8.367188 104.160156-.382812 107.007812-19.535156zm0 0" fill="#ffd073"/><path d="m320.796875 70.410156c3.46875 23.320313 36.183594 37.78125 73.074219 32.292969 36.890625-5.484375 63.984375-28.839844 60.519531-52.160156-3.46875-23.324219-36.1875-37.78125-73.078125-32.296875-36.890625 5.488281-63.984375 28.839844-60.515625 52.164062zm0 0" fill="#ff9c40"/><path d="m263.589844 89.082031c3.46875 23.324219 61.796875 33.972657 130.285156 23.785157 68.484375-10.183594 121.191406-37.347657 117.722656-60.667969-3.46875-23.324219-61.800781-33.972657-130.285156-23.789063-68.484375 10.1875-121.191406 37.351563-117.722656 60.671875zm0 0" fill="#ffd073"/><path d="m347.363281 76.625c.816407 5.492188 19.488281 7.265625 41.707031 3.960938 22.21875-3.304688 39.570313-10.4375 38.753907-15.929688-.816407-5.492188-19.492188-7.265625-41.710938-3.960938-22.21875 3.304688-39.566406 10.4375-38.75 15.929688zm0 0" fill="#ff9c40"/><path d="m468.042969 397.488281c-3.339844 5.054688-6.855469 9.976563-10.527344 14.761719-3.734375 4.867188-7.644531 9.609375-11.730469 14.183594l-63.402344-355.777344h11.035157zm0 0" fill="#2f373b"/><path d="m114.386719 70.65625-60.957031 341.996094c-.105469-.132813-.21875-.28125-.324219-.414063-7.601563-9.890625-14.488281-20.363281-20.59375-31.328125l70.828125-310.253906zm0 0" fill="#2f373b"/><path d="m340.636719 435.484375c0 10.585937 23.347656 24.742187 20.25 34.300781-3.214844 9.898438-30.535157 7.601563-36.527344 15.847656-2.609375 3.589844-2.132813 10.316407-1.414063 17.296876-16.640624 4.566406-33.96875 7.488281-51.785156 8.582031-5.242187.320312-10.523437.488281-15.847656.488281-5.328125 0-10.609375-.167969-15.851562-.488281-17.816407-1.09375-35.144532-4.015625-51.785157-8.582031.71875-6.980469 1.199219-13.707032-1.414062-17.296876-5.988281-8.246093-33.3125-5.949218-36.527344-15.847656-3.097656-9.558594 20.25-23.714844 20.25-34.300781 0-10.589844-23.347656-24.753906-20.25-34.300781 3.214844-9.902344 30.539063-7.613282 36.527344-15.851563 6.0625-8.332031-4.511719-33.574219 3.808593-39.636719 8.234376-6 28.964844 11.824219 38.867188 8.613282 9.546875-3.109375 15.785156-29.808594 26.375-29.808594 10.585938 0 16.828125 26.699219 26.375 29.808594 9.902344 3.210937 30.628906-14.613282 38.867188-8.613282 8.320312 6.0625-2.257813 31.304688 3.804687 39.636719 5.992187 8.238281 33.3125 5.949219 36.527344 15.851563 3.097656 9.546875-20.25 23.710937-20.25 34.300781zm0 0" fill="#d8d4ce"/><path d="m271.160156 459.144531v52.367188c-5.242187.320312-10.523437.488281-15.847656.488281-5.328125 0-10.609375-.167969-15.851562-.488281v-52.367188zm0 0" fill="#f76cae"/><path d="m255.3125 459.144531v52.855469c-5.328125 0-10.609375-.167969-15.851562-.488281v-52.367188zm0 0" fill="#c92888"/><path d="m300.03125 400.140625v51.703125c0 13.042969-10.566406 23.617188-23.617188 23.617188h-42.207031c-13.050781 0-23.617187-10.574219-23.617187-23.617188v-51.703125c0-13.039063 10.566406-23.617187 23.617187-23.617187h42.207031c13.050782 0 23.617188 10.578124 23.617188 23.617187zm0 0" fill="#151a1c"/><path d="m300.03125 400.140625v51.703125c0 13.042969-10.566406 23.617188-23.617188 23.617188h-15.101562c-13.042969 0-23.621094-10.574219-23.621094-23.617188v-51.703125c0-13.039063 10.578125-23.617187 23.621094-23.617187h15.101562c13.050782 0 23.617188 10.578124 23.617188 23.617187zm0 0" fill="#2f373b"/></svg>