<svg height="512pt" viewBox="0 0 512 512" width="512pt" xmlns="http://www.w3.org/2000/svg"><path d="m512 256c0 17.992188-1.859375 35.546875-5.390625 52.484375-17.347656 83.289063-75.179687 151.730469-151.980469 183.820313-30.355468 12.695312-63.667968 19.695312-98.628906 19.695312-31.921875 0-62.472656-5.839844-90.65625-16.519531-29.152344-11.035157-55.765625-27.25-78.710938-47.511719-5.066406-4.472656-9.96875-9.152344-14.671874-14.011719-3.75-3.886719-7.386719-7.890625-10.898438-12.007812-2.902344-3.414063-5.726562-6.90625-8.453125-10.46875-2.664063-3.480469-5.246094-7.03125-7.742187-10.65625-2.402344-3.5-4.722657-7.066407-6.957032-10.691407-10.011718-16.238281-18.253906-33.675781-24.472656-52.054687-3.488281-10.335937-6.34375-20.953125-8.503906-31.828125-1.277344-6.40625-2.3125-12.894531-3.09375-19.46875-.605469-4.953125-1.054688-9.945312-1.359375-14.980469-.21875-3.472656-.355469-6.949219-.417969-10.449219-.0429688-1.777343-.0625-3.566406-.0625-5.351562 0-1.714844.0195312-3.417969.0507812-5.121094 1.4023438-71.6875 32.2773438-136.148437 81.0117188-181.769531 12.664062-11.871094 26.550781-22.464844 41.429688-31.578125 23.269531-14.25 48.984374-24.886719 76.382812-31.136719 18.371094-4.179687 37.492188-6.394531 57.125-6.394531 26.855469 0 52.734375 4.136719 77.0625 11.796875 14.105469 4.453125 27.6875 10.082031 40.625 16.800781 23.476562 12.175782 44.824219 27.878906 63.351562 46.40625 31.554688 31.554688 54.910157 71.324219 66.582032 115.816406 5.472656 20.804688 8.378906 42.652344 8.378906 65.179688zm0 0" fill="#f76cae"/><path d="m381.273438 46.957031c-.953126-6.832031-3.636719-13.09375-7.585938-18.359375-6.8125-9.121094-17.429688-15.234375-29.351562-16.046875-3.761719-.261719-7.511719-.503906-11.273438-.753906-44.578125-2.851563-89.351562-4.660156-134.1875-5.402344-27.398438 6.25-53.113281 16.886719-76.382812 31.136719 9.8125-.113281 19.613281-.164062 29.425781-.164062 63.582031 0 127.152343 2.152343 190.285156 6.457031 4.085937.28125 7.460937 3.414062 8.027344 7.449219 11.304687 81.261718 11.304687 163.660156 0 244.921874-.566407 4.035157-3.941407 7.167969-8.027344 7.453126-63.132813 4.304687-126.703125 6.457031-190.285156 6.457031-49.070313 0-98.125-1.285157-146.984375-3.855469 2.160156 10.875 5.015625 21.492188 8.503906 31.828125 46.046875 2.253906 92.265625 3.375 138.480469 3.375 64.292969 0 128.585937-2.175781 192.417969-6.53125 18.808593-1.285156 34.34375-15.757813 36.9375-34.410156 11.703124-84.125 11.703124-169.429688 0-253.554688zm0 0" fill="#d8d4ce"/><path d="m506.609375 308.484375c-1.066406 49.476563-5.039063 98.964844-11.921875 148.460937-2.238281 16.058594-15.457031 28.359376-31.628906 29.453126-36.144532 2.46875-72.289063 4.441406-108.429688 5.90625-63.101562 2.578124-126.191406 3.636718-189.285156 3.175781-8.117188-3.074219-16.027344-6.542969-23.730469-10.398438-19.957031-9.976562-38.417969-22.496093-54.980469-37.113281-5.066406-4.472656-9.96875-9.152344-14.671874-14.011719-3.75-3.886719-7.386719-7.890625-10.898438-12.007812-2.902344-3.414063-5.726562-6.90625-8.453125-10.46875-2.664063-3.480469-5.246094-7.03125-7.742187-10.65625-2.402344-3.5-4.722657-7.066407-6.957032-10.691407-10.011718-16.238281-18.253906-33.675781-24.472656-52.054687-3.488281-10.335937-6.34375-20.953125-8.503906-31.828125-1.277344-6.40625-2.3125-12.894531-3.09375-19.46875-.605469-4.953125-1.054688-9.945312-1.359375-14.980469-.21875-3.472656-.355469-6.949219-.417969-10.449219-.0429688-1.777343-.0625-3.566406-.0625-5.351562 0-1.714844.0195312-3.417969.0507812-5.121094.3554688-18.398437 2.6640628-36.320312 6.7109378-53.570312.824219-3.511719 1.710937-6.992188 2.671875-10.4375 5.476562-19.550782 13.210937-38.152344 22.90625-55.496094 1.972656-3.542969 4.03125-7.023438 6.164062-10.449219 9.425782-15.160156 20.40625-29.257812 32.714844-42.078125 3.1875-3.332031 6.46875-6.582031 9.84375-9.738281 118.660156-3.394531 237.316406-1.429687 355.976562 5.894531 8.671876.53125 17.34375 1.085938 26.019532 1.679688 16.171875 1.097656 29.390625 13.398437 31.628906 29.457031 3.925781 28.222656 6.90625 56.445313 8.933594 84.679687 2.820312 39.214844 3.8125 78.4375 2.988281 117.664063zm0 0" fill="#151a1c"/><path d="m496.160156 308.265625c-1.054687 48.859375-5.027344 98.398437-11.820312 147.238281-1.542969 11.105469-10.792969 19.714844-21.992188 20.46875-36.132812 2.464844-72.515625 4.449219-108.136718 5.890625-53.09375 2.175781-106.976563 3.273438-160.164063 3.273438-6.082031 0-33.164063-.011719-52.433594-.054688-19.957031-9.976562-38.417969-22.496093-54.980469-37.113281-5.066406-4.472656-9.96875-9.152344-14.671874-14.011719-3.75-3.886719-7.386719-7.890625-10.898438-12.007812-2.902344-3.414063-5.726562-6.90625-8.453125-10.46875-2.664063-3.480469-5.246094-7.03125-7.742187-10.65625-2.402344-3.5-4.722657-7.066407-6.957032-10.691407-10.011718-16.238281-18.253906-33.675781-24.472656-52.054687-3.488281-10.335937-6.34375-20.953125-8.503906-31.828125-1.277344-6.40625-2.3125-12.894531-3.09375-19.46875-.605469-4.953125-1.054688-9.945312-1.359375-14.980469-.21875-3.472656-.355469-6.949219-.417969-10.449219-.0429688-1.777343-.0625-3.566406-.0625-5.351562 0-1.714844.0195312-3.417969.0507812-5.121094.3554688-18.398437 2.6640628-36.320312 6.7109378-53.570312.824219-3.511719 1.710937-6.992188 2.671875-10.4375 5.476562-19.550782 13.210937-38.152344 22.90625-55.496094 1.972656-3.542969 4.03125-7.023438 6.164062-10.449219 9.425782-15.160156 20.40625-29.257812 32.714844-42.078125 40.03125-.59375 94.773438-.898437 122.609375-.898437 80.476563 0 162.085937 2.519531 242.5625 7.480469 9.695313.597656 18.183594 1.152343 25.945313 1.683593 11.210937.753907 20.460937 9.363281 22.003906 20.46875 3.878906 27.867188 6.855468 56.121094 8.863281 83.988281 2.777344 38.671876 3.769531 77.941407 2.957031 116.695313zm0 0" fill="#2f373b"/><path d="m357.117188 460.566406c-20.785157 0-41.839844-.605468-62.585938-1.796875l-.960938-.054687c-25.6875-1.484375-46.289062-21.078125-48.984374-46.589844-9.160157-86.648438-9.160157-174.515625 0-261.164062 2.695312-25.511719 23.296874-45.101563 48.980468-46.585938l.96875-.054688c20.742188-1.195312 41.796875-1.800781 62.582032-1.800781 20.78125 0 41.835937.605469 62.582031 1.800781l.957031.054688c25.695312 1.484375 46.292969 21.078125 48.988281 46.585938 9.160157 86.648437 9.160157 174.515624 0 261.167968-2.695312 25.507813-23.292969 45.101563-48.980469 46.585938l-.957031.054687c-20.75 1.191407-41.808593 1.796875-62.589843 1.796875zm0 0" fill="#151a1c"/><path d="m294.292969 446.195312c.320312.019532.640625.035157.960937.054688 41.207032 2.371094 82.519532 2.371094 123.726563 0 .320312-.019531.640625-.035156.960937-.054688 19.398438-1.121093 35.191406-16.066406 37.234375-35.386718 9.085938-85.949219 9.085938-172.585938 0-258.53125-2.042969-19.324219-17.835937-34.265625-37.234375-35.386719-.320312-.019531-.640625-.039063-.960937-.054687-41.207031-2.371094-82.519531-2.371094-123.726563 0-.320312.015624-.640625.035156-.960937.054687-19.398438 1.121094-35.191407 16.0625-37.234375 35.386719-9.085938 85.945312-9.085938 172.582031 0 258.53125 2.039062 19.320312 17.835937 34.265625 37.234375 35.386718zm0 0" fill="#d8d4ce"/><path d="m451.070312 338.289062c0 51.890626-42.0625 93.953126-93.953124 93.953126-51.890626 0-93.957032-42.0625-93.957032-93.953126 0-51.890624 42.066406-93.957031 93.957032-93.957031 51.890624 0 93.953124 42.066407 93.953124 93.957031zm0 0" fill="#b2aca3"/><path d="m431.667969 338.285156c0 23.992188-11.328125 45.339844-28.933594 58.964844-12.601563 9.769531-28.433594 15.589844-45.621094 15.589844-41.167969 0-74.554687-33.375-74.554687-74.554688 0-41.167968 33.386718-74.554687 74.554687-74.554687 17.1875 0 33.019531 5.820312 45.621094 15.589843 17.605469 13.636719 28.933594 34.984376 28.933594 58.964844zm0 0" fill="#2f373b"/><path d="m431.667969 338.285156c0 23.992188-11.328125 45.339844-28.933594 58.964844-17.605469-13.625-28.945313-34.964844-28.945313-58.964844 0-23.992187 11.339844-45.335937 28.945313-58.964844 17.605469 13.636719 28.933594 34.984376 28.933594 58.964844zm0 0" fill="#151a1c"/><path d="m340.4375 338.285156c0 23.992188-11.328125 45.339844-28.933594 58.964844-17.605468-13.625-28.945312-34.964844-28.945312-58.964844 0-23.992187 11.339844-45.335937 28.945312-58.964844 17.605469 13.636719 28.933594 34.984376 28.933594 58.964844zm0 0" fill="#151a1c"/><path d="m383.121094 338.285156c0 11.265625-7.148438 20.847656-17.15625 24.460938-2.769532 1.003906-5.746094 1.546875-8.851563 1.546875-14.355469 0-25.996093-11.640625-25.996093-26.007813 0-14.355468 11.640624-25.996094 25.996093-25.996094 3.105469 0 6.082031.542969 8.851563 1.546876 10.007812 3.613281 17.15625 13.195312 17.15625 24.449218zm0 0" fill="#d8d4ce"/><path d="m383.121094 338.285156c0 11.265625-7.148438 20.847656-17.15625 24.460938-10-3.625-17.148438-13.207032-17.148438-24.460938 0-11.242187 7.148438-20.824218 17.148438-24.449218 10.007812 3.613281 17.15625 13.195312 17.15625 24.449218zm0 0" fill="#f2efea"/><path d="m448.386719 181.785156c0 18.191406-8.589844 34.375-21.9375 44.703125-9.550781 7.410157-21.554688 11.820313-34.585938 11.820313-31.214843 0-56.527343-25.300782-56.527343-56.523438 0-31.210937 25.3125-56.523437 56.527343-56.523437 13.03125 0 25.03125 4.414062 34.585938 11.820312 13.347656 10.335938 21.9375 26.523438 21.9375 44.703125zm0 0" fill="#b2aca3"/><path d="m436.894531 181.785156c0 14.492188-6.84375 27.382813-17.476562 35.613282-7.613281 5.902343-17.175781 9.417968-27.554688 9.417968-24.867187 0-45.03125-20.160156-45.03125-45.03125 0-24.867187 20.164063-45.03125 45.03125-45.03125 10.378907 0 19.941407 3.515625 27.554688 9.417969 10.632812 8.234375 17.476562 21.128906 17.476562 35.613281zm0 0" fill="#2f373b"/><path d="m436.894531 181.785156c0 14.492188-6.84375 27.382813-17.476562 35.613282-10.636719-8.230469-17.484375-21.117188-17.484375-35.613282 0-14.492187 6.847656-27.382812 17.484375-35.613281 10.632812 8.234375 17.476562 21.128906 17.476562 35.613281zm0 0" fill="#151a1c"/><path d="m381.789062 181.785156c0 14.492188-6.839843 27.382813-17.476562 35.613282-10.632812-8.230469-17.480469-21.117188-17.480469-35.613282 0-14.492187 6.847657-27.382812 17.480469-35.613281 10.636719 8.234375 17.476562 21.128906 17.476562 35.613281zm0 0" fill="#151a1c"/><path d="m407.570312 181.785156c0 6.804688-4.316406 12.589844-10.363281 14.773438-1.671875.605468-3.46875.933594-5.34375.933594-8.671875 0-15.703125-7.027344-15.703125-15.707032 0-8.671875 7.03125-15.703125 15.703125-15.703125 1.875 0 3.671875.328125 5.34375.933594 6.046875 2.183594 10.363281 7.972656 10.363281 14.769531zm0 0" fill="#d8d4ce"/><path d="m407.570312 181.785156c0 6.804688-4.316406 12.589844-10.363281 14.773438-6.039062-2.1875-10.355469-7.976563-10.355469-14.773438 0-6.789062 4.316407-12.578125 10.355469-14.769531 6.046875 2.183594 10.363281 7.972656 10.363281 14.769531zm0 0" fill="#f2efea"/><path d="m210.535156 422.011719c-1.492187 12.664062-11.929687 22.371093-24.660156 23.136719-4.34375.261718-8.679688.5-13.027344.730468-3.636718.1875-7.273437.367188-10.898437.53125-13.1875.585938-26.375 1.015625-39.550781 1.265625-3.636719.074219-7.261719.136719-10.886719.179688-8.285157.101562-16.582031.144531-24.878907.113281-5.066406-4.472656-9.96875-9.152344-14.671874-14.011719-3.75-3.886719-7.386719-7.890625-10.898438-12.007812-2.902344-3.414063-5.726562-6.90625-8.453125-10.46875-2.664063-3.480469-5.246094-7.03125-7.742187-10.65625-2.402344-3.5-4.722657-7.066407-6.957032-10.691407-10.011718-16.238281-18.253906-33.675781-24.472656-52.054687-3.488281-10.335937-6.34375-20.953125-8.503906-31.828125-1.277344-6.40625-2.3125-12.894531-3.09375-19.46875 61.34375-3.519531 122.679687-3.4375 184.035156.253906 1.746094.101563 3.449219.375 5.089844.8125 4.136718 1.066406 7.898437 3.105469 10.992187 5.882813 4.640625 4.128906 7.804688 9.886719 8.578125 16.4375 1.496094 12.644531 2.488282 25.285156 2.96875 37.917969.929688 24.648437-.050781 49.289062-2.96875 73.925781zm0 0" fill="#151a1c"/><path d="m213.503906 348.085938c-.480468 12.644531-1.472656 25.289062-2.96875 37.929687-1.492187 12.65625-11.929687 22.371094-24.660156 23.136719-4.34375.257812-8.679688.5-13.027344.71875-3.636718.199218-7.273437.367187-10.898437.535156-13.1875.582031-26.375 1.011719-39.550781 1.261719-3.636719.074219-7.261719.136719-10.886719.179687-13.175781.167969-26.363281.167969-39.550781 0-3.636719-.042968-7.269532-.105468-10.898438-.179687-2.820312-.050781-5.640625-.113281-8.453125-.1875-2.664063-3.480469-5.246094-7.03125-7.742187-10.65625-2.402344-3.5-4.722657-7.066407-6.957032-10.691407-10.011718-16.238281-18.253906-33.675781-24.472656-52.054687-3.488281-10.335937-6.34375-20.953125-8.503906-31.828125-1.277344-6.40625-2.3125-12.894531-3.09375-19.46875-.605469-4.953125-1.054688-9.945312-1.359375-14.980469-.21875-3.472656-.355469-6.949219-.417969-10.449219-.0429688-1.777343-.0625-3.566406-.0625-5.351562 0-1.714844.0195312-3.417969.0507812-5.121094 61.9414068-3.613281 123.8749998-3.5625 185.8242188.148438 12.730469.761718 23.167969 10.480468 24.660156 23.132812 2.917969 24.640625 3.898438 49.277344 2.96875 73.925782zm0 0" fill="#151a1c"/><path d="m161.953125 382.511719h10.890625v72.851562h-10.890625zm0 0" fill="#2f373b"/><path d="m111.507812 382.511719h10.894532v72.851562h-10.894532zm0 0" fill="#2f373b"/><path d="m71.960938 382.515625v51.441406c-3.75-3.886719-7.386719-7.890625-10.898438-12.007812v-39.433594zm0 0" fill="#2f373b"/><path d="m200.160156 384.785156c-.898437 7.605469-7.167968 13.46875-14.910156 13.9375-4.128906.25-8.265625.480469-12.402344.699219-3.636718.179687-7.261718.355469-10.898437.523437-13.167969.585938-26.375 1.011719-39.550781 1.273438-3.625.074219-7.261719.136719-10.886719.179688-6.605469.082031-13.199219.125-19.78125.125-6.570313 0-13.164063-.042969-19.769531-.125-3.636719-.042969-7.261719-.105469-10.898438-.179688-5.390625-.101562-10.792969-.238281-16.195312-.394531-2.402344-3.5-4.722657-7.066407-6.957032-10.691407-10.011718-16.238281-18.253906-33.675781-24.472656-52.054687-3.488281-10.335937-6.34375-20.953125-8.503906-31.828125-1.277344-6.40625-2.3125-12.894531-3.09375-19.46875-.605469-4.953125-1.054688-9.945312-1.359375-14.980469-.21875-3.472656-.355469-6.949219-.417969-10.449219 30.425781-1.800781 61.261719-2.699218 91.667969-2.699218 31.023437 0 62.484375.941406 93.519531 2.800781 7.742188.472656 14.011719 6.332031 14.910156 13.941406.722656 6.101563 1.328125 12.214844 1.796875 18.335938 2.371094 30.3125 1.777344 60.867187-1.796875 91.054687zm0 0" fill="#b2aca3"/><path d="m189.785156 383.5625c-.304687 2.578125-2.476562 4.566406-5.164062 4.722656-3.917969.238282-7.84375.457032-11.773438.65625-3.625.199219-7.261718.378906-10.898437.542969-13.167969.585937-26.375 1.015625-39.550781 1.285156-3.625.074219-7.261719.125-10.886719.179688-6.605469.082031-13.199219.125-19.78125.125-6.570313 0-13.164063-.042969-19.769531-.125-3.625-.054688-7.261719-.105469-10.898438-.179688-7.710938-.15625-15.433594-.363281-23.152344-.636719-10.011718-16.238281-18.253906-33.675781-24.472656-52.054687-3.488281-10.335937-6.34375-20.953125-8.503906-31.828125-1.277344-6.40625-2.3125-12.894531-3.09375-19.46875-.605469-4.953125-1.054688-9.945312-1.359375-14.980469 30.28125-1.789062 60.980469-2.699219 91.25-2.699219 30.816406 0 62.066406.941407 92.890625 2.792969 2.6875.15625 4.859375 2.140625 5.164062 4.722657.4375 3.738281.835938 7.480468 1.179688 11.230468 2.96875 31.828125 2.570312 63.96875-1.179688 95.714844zm0 0" fill="#d8d4ce"/><path d="m162.769531 330.089844c0 15.226562-12.34375 27.574218-27.574219 27.574218-15.226562 0-27.570312-12.347656-27.570312-27.574218 0-15.230469 12.34375-27.574219 27.570312-27.574219 15.230469 0 27.574219 12.34375 27.574219 27.574219zm0 0" fill="#b2aca3"/><path d="m135.195312 347.214844c-9.441406 0-17.121093-7.683594-17.121093-17.125 0-9.445313 7.679687-17.125 17.121093-17.125 9.445313 0 17.128907 7.679687 17.128907 17.125 0 9.441406-7.683594 17.125-17.128907 17.125zm0 0" fill="#2f373b"/><path d="m75.84375 330.089844c0 15.226562-12.34375 27.574218-27.574219 27.574218-15.226562 0-27.570312-12.347656-27.570312-27.574218 0-15.230469 12.34375-27.574219 27.570312-27.574219 15.230469 0 27.574219 12.34375 27.574219 27.574219zm0 0" fill="#b2aca3"/><path d="m48.273438 347.214844c-9.445313 0-17.128907-7.683594-17.128907-17.125 0-9.445313 7.683594-17.125 17.128907-17.125 9.441406 0 17.125 7.679687 17.125 17.125-.003907 9.441406-7.683594 17.125-17.125 17.125zm0 0" fill="#2f373b"/><path d="m110.976562 371.617188h-38.484374c-1.59375 0-2.886719-1.289063-2.886719-2.882813v-9.210937c0-1.59375 1.292969-2.882813 2.886719-2.882813h38.484374c1.59375 0 2.886719 1.289063 2.886719 2.882813v9.210937c0 1.59375-1.292969 2.882813-2.886719 2.882813zm0 0" fill="#2f373b"/><path d="m151.480469 421.355469-12.574219-7.261719c-2.769531-1.597656-6.230469.398438-6.230469 3.597656v14.523438c0 3.195312 3.460938 5.195312 6.230469 3.59375l12.574219-7.257813c2.769531-1.601562 2.769531-5.597656 0-7.195312zm0 0" fill="#d8d4ce"/><path d="m104.898438 424.953125c0 7.015625-5.691407 12.707031-12.710938 12.707031s-12.707031-5.691406-12.707031-12.707031c0-7.019531 5.6875-12.710937 12.707031-12.710937s12.710938 5.691406 12.710938 12.710937zm0 0" fill="#f76cae"/><path d="m217.359375 177.496094c-2.714844 10.628906-12.339844 18.054687-23.3125 18.296875-62.421875 1.335937-124.855469 1.847656-187.285156 1.515625 6.425781-27.429688 17.269531-53.144532 31.742187-76.382813 51.847656-.050781 103.695313.492188 155.542969 1.609375 10.972656.230469 20.597656 7.667969 23.3125 18.296875 3.125 12.214844 3.125 24.441407 0 36.664063zm0 0" fill="#151a1c"/><path d="m207.234375 174.90625c-1.535156 6.007812-7.054687 10.300781-13.417969 10.4375-49.757812 1.078125-100.214844 1.621094-149.972656 1.621094-11.441406 0-22.914062-.03125-34.410156-.09375 5.476562-19.550782 13.210937-38.152344 22.90625-55.496094 3.835937-.011719 7.667968-.011719 11.503906-.011719 49.757812 0 100.214844.542969 149.972656 1.609375 6.363282.148438 11.882813 4.429688 13.417969 10.449219 2.707031 10.585937 2.707031 20.886719 0 31.484375zm0 0" fill="#ffd073"/><g fill="#ff9c40"><path d="m187.273438 177.203125c-2.632813 0-4.765626-2.132813-4.765626-4.765625v-26.550781c0-2.632813 2.132813-4.765625 4.765626-4.765625 2.632812 0 4.765624 2.132812 4.765624 4.765625v26.550781c0 2.632812-2.132812 4.765625-4.765624 4.765625zm0 0"/><path d="m150 177.203125c-2.632812 0-4.765625-2.132813-4.765625-4.765625v-26.550781c0-2.632813 2.132813-4.765625 4.765625-4.765625 2.628906 0 4.765625 2.132812 4.765625 4.765625v26.550781c0 2.632812-2.136719 4.765625-4.765625 4.765625zm0 0"/><path d="m112.722656 177.203125c-2.632812 0-4.765625-2.132813-4.765625-4.765625v-26.550781c0-2.632813 2.132813-4.765625 4.765625-4.765625 2.632813 0 4.765625 2.132812 4.765625 4.765625v26.550781c0 2.632812-2.132812 4.765625-4.765625 4.765625zm0 0"/><path d="m75.445312 141.121094c2.632813 0 4.765626 2.132812 4.765626 4.765625v26.550781c0 2.632812-2.132813 4.765625-4.765626 4.765625-2.632812 0-4.765624-2.132813-4.765624-4.765625v-26.550781c0-2.632813 2.132812-4.765625 4.765624-4.765625zm0 0"/><path d="m38.171875 141.121094c2.628906 0 4.765625 2.132812 4.765625 4.765625v26.550781c0 2.632812-2.136719 4.765625-4.765625 4.765625-2.632813 0-4.765625-2.132813-4.765625-4.765625v-26.550781c0-2.632813 2.132812-4.765625 4.765625-4.765625zm0 0"/></g><path d="m484.183594 189.585938v15.96875c0 3.484374-2.429688 6.496093-5.832032 7.238281l-44.789062 9.730469v69.914062c0 13.140625-15.730469 23.792969-35.136719 23.792969-19.402343 0-35.132812-10.652344-35.132812-23.792969 0-13.152344 15.730469-23.804688 35.132812-23.804688 7.121094 0 13.738281 1.4375 19.273438 3.894532v-71.710938c0-3.480468 2.425781-6.496094 5.832031-7.234375l51.675781-11.230469c4.613281-1.003906 8.976563 2.511719 8.976563 7.234376zm0 0" fill="#2880a8"/><path d="m262.179688 125.386719v65.382812c-5.261719-2.339843-11.550782-3.707031-18.3125-3.707031-18.441407 0-33.390626 10.128906-33.390626 22.621094 0 12.492187 14.949219 22.621094 33.390626 22.621094 18.441406 0 33.390624-10.128907 33.390624-22.621094v-66.441406l65.386719-14.207032v44.25c-5.257812-2.339844-11.546875-3.707031-18.308593-3.707031-18.445313 0-33.394532 10.128906-33.394532 22.621094 0 12.496093 14.953125 22.621093 33.394532 22.621093 18.441406 0 33.390624-10.125 33.390624-22.621093v-83.019531c0-6.683594-6.175781-11.664063-12.710937-10.242188l-74.578125 16.203125c-4.820312 1.050781-8.257812 5.3125-8.257812 10.246094zm0 0" fill="#2880a8"/></svg>