<svg height="512pt" viewBox="0 0 512 512" width="512pt" xmlns="http://www.w3.org/2000/svg"><path d="m512 256c0 54.953125-17.3125 105.847656-46.78125 147.550781-17.554688 24.847657-39.414062 46.425781-64.511719 63.644531-41.15625 28.265626-91 44.804688-144.707031 44.804688-53.71875 0-103.558594-16.539062-144.730469-44.816406-25.074219-17.21875-46.945312-38.796875-64.5-63.632813-29.457031-41.703125-46.769531-92.609375-46.769531-147.550781 0-135.417969 105.136719-246.273438 238.238281-255.382812.4375-.042969.875-.074219 1.316407-.09375 5.441406-.347657 10.917968-.523438 16.445312-.523438s11.003906.175781 16.445312.523438c.03125 0 .0625 0 .085938.007812 133.671875 8.507812 239.46875 119.632812 239.46875 255.46875zm0 0" fill="#f76cae"/><path d="m465.21875 403.550781c-12.265625 17.367188-26.632812 33.132813-42.746094 46.925781-6.9375 5.957032-14.210937 11.535157-21.765625 16.71875-41.15625 28.265626-91 44.804688-144.707031 44.804688-53.71875 0-103.558594-16.539062-144.730469-44.816406-7.554687-5.191406-14.816406-10.773438-21.761719-16.726563-16.105468-13.792969-30.472656-29.550781-42.738281-46.90625-2.257812-66.570312-2.550781-133.152343-.898437-199.722656 2.683594-107.769531 86.582031-195.113281 192.367187-203.210937.4375-.042969.875-.074219 1.316407-.09375 4.773437-.347657 9.582031-.5117192 14.4375-.523438h4.003906c4.859375.0117188 9.675781.175781 14.449218.523438.03125 0 .0625 0 .085938.007812 106.359375 7.503906 190.890625 95.117188 193.585938 203.296875 1.664062 66.570313 1.359374 133.152344-.898438 199.722656zm0 0" fill="#6cb9d3"/><path d="m422.472656 450.476562c-6.9375 5.957032-14.210937 11.535157-21.765625 16.71875-41.15625 28.265626-91 44.804688-144.707031 44.804688-53.71875 0-103.558594-16.539062-144.730469-44.816406-7.554687-5.191406-14.816406-10.773438-21.761719-16.726563-3.941406-81.871093-4.914062-164.394531-2.886718-245.617187 1.097656-44.0625 19.027344-85.3125 50.492187-116.160156 31.449219-30.835938 72.984375-47.855469 116.941407-47.929688h3.847656c43.988281.074219 85.515625 17.09375 116.984375 47.921875 31.464843 30.863281 49.394531 72.117187 50.492187 116.167969 2.027344 81.191406 1.054688 163.738281-2.90625 245.636718zm0 0" fill="#2880a8"/><path d="m400.707031 467.195312c-41.15625 28.265626-91 44.804688-144.707031 44.804688-53.71875 0-103.558594-16.539062-144.730469-44.816406-4.660156-87.28125-5.921875-175.007813-3.761719-261.820313.964844-38.597656 16.667969-74.742187 44.230469-101.761719 27.535157-26.988281 63.886719-41.890624 102.347657-41.953124h3.816406c38.472656.0625 74.8125 14.964843 102.359375 41.953124 27.550781 27.019532 43.265625 63.164063 44.230469 101.761719 2.160156 86.8125.886718 174.550781-3.785157 261.832031zm0 0" fill="#2f373b"/><path d="m345.375 195.574219h-178.753906c-14.957032 0-25.292969-15.042969-19.847656-28.972657 5.910156-15.121093 15.007812-28.949218 26.910156-40.617187 21.648437-21.222656 50.226562-32.9375 80.445312-32.988281h3.773438c30.1875.050781 58.753906 11.765625 80.402344 32.988281 11.902343 11.667969 21 25.492187 26.914062 40.617187 5.449219 13.925782-4.890625 28.972657-19.84375 28.972657zm0 0" fill="#ff9c40"/><path d="m166.621094 181.988281c-3.679688 0-5.691406-2.359375-6.382813-3.371093-.847656-1.246094-2.085937-3.816407-.8125-7.066407 5.28125-13.515625 13.277344-25.582031 23.765625-35.867187 19.101563-18.722656 44.300782-29.058594 70.960938-29.105469h3.75c26.609375.046875 51.796875 10.382813 70.894531 29.105469 10.488281 10.28125 18.484375 22.347656 23.773437 35.863281 1.269532 3.25.035157 5.824219-.816406 7.066406-.691406 1.015625-2.699218 3.375-6.378906 3.375zm0 0" fill="#ffd073"/><path d="m356.234375 326.648438c-66.824219 2.785156-133.648437 2.785156-200.472656 0-10.609375-.441407-19.515625-8.238282-21.222657-18.714844-3.742187-23.003906-3.742187-46.007813 0-69.007813 1.707032-10.476562 10.613282-18.273437 21.222657-18.714843 66.824219-2.785157 133.648437-2.785157 200.472656 0 10.605469.441406 19.515625 8.238281 21.21875 18.714843 3.742187 23 3.742187 46.003907 0 69.007813-1.703125 10.476562-10.613281 18.273437-21.21875 18.714844zm0 0" fill="#f2efea"/><path d="m149.289062 234.621094h41.871094v77.617187h-41.871094zm0 0" fill="#fff"/><path d="m165.496094 234.621094h41.871094v77.617187h-41.871094zm0 0" fill="#d8d4ce"/><path d="m181.707031 234.621094h41.871094v77.617187h-41.871094zm0 0" fill="#fff"/><path d="m197.917969 234.621094h41.871093v77.617187h-41.871093zm0 0" fill="#d8d4ce"/><path d="m214.125 234.621094h41.871094v77.617187h-41.871094zm0 0" fill="#fff"/><path d="m320.835938 234.621094h41.871093v77.617187h-41.871093zm0 0" fill="#d8d4ce"/><path d="m304.625 234.621094h41.871094v77.617187h-41.871094zm0 0" fill="#b2aca3"/><path d="m288.414062 234.621094h41.871094v77.617187h-41.871094zm0 0" fill="#d8d4ce"/><path d="m272.207031 234.621094h41.871094v77.617187h-41.871094zm0 0" fill="#b2aca3"/><path d="m255.996094 234.621094h41.871094v77.617187h-41.871094zm0 0" fill="#d8d4ce"/><path d="m316.59375 348.527344v78.292968c0 .167969 0 .34375-.011719.511719.011719.367188 0 .730469-.007812 1.097657-.0625 2.433593-.273438 4.828124-.617188 7.179687-1.421875 9.820313-5.203125 18.890625-10.761719 26.589844-2.144531 2.988281-4.558593 5.757812-7.199218 8.296875-10.890625 10.480468-25.683594 16.917968-41.996094 16.917968-16.152344 0-30.824219-6.320312-41.691406-16.625-.398438-.367187-.785156-.742187-1.160156-1.117187-2.214844-2.214844-4.253907-4.597656-6.101563-7.136719-6.300781-8.621094-10.375-18.964844-11.390625-30.199218-.105469-1.148438-.175781-2.320313-.207031-3.488282-.03125-.648437-.042969-1.296875-.042969-1.945312v-78.375zm0 0" fill="#f2efea"/><path d="m314.546875 400.3125 2.046875-4.820312 2.039062-4.792969-2.039062-.867188-1.296875-.554687 1.296875-.554688 2.039062-.867187-2.039062-4.796875-2.046875-4.816406-12.613281 5.359374-32.066406-13.625 46.726562-19.863281v-1.585937h-22.976562l-37.117188 15.765625-37.113281-15.765625h-23.980469v1.160156l47.730469 20.289062-32.066407 13.625-12.613281-5.359374-3.050781 7.179687-1.035156 2.433594 1.035156.4375 2.300781.984375-2.300781.980468-1.035156.441407 1.035156 2.433593 3.050781 7.179688 12.613281-5.363281 32.066407 13.636719-32.066407 13.625-12.613281-5.359376-3.050781 7.179688-1.035156 2.433594 1.035156.4375 2.300781.984375-2.257812.960937-1.078125.460938 1.285156 3.027344 2.800781 6.582031 12.613281-5.359375 32.066407 13.636718-36.089844 15.339844-12.675781 5.378906 14.535156 9.613282 5.402344-6.738282 42.191406-17.917968 41.496094 17.625 6.097656 7.03125 14.539062-9.613282-13.4375-5.714843-35.328124-15.003907 32.066406-13.636718 12.613281 5.359375 1.410156-3.308594 2.675781-6.300781-2.058593-.878906-1.277344-.542969 1.285156-.554688 2.050781-.867187-2.039062-4.796875-2.046875-4.816407-12.613281 5.359376-32.066406-13.625 32.066406-13.636719zm-25.96875 27.574219-32.078125 13.625-32.078125-13.625 32.078125-13.625zm-32.078125-24.984375-32.078125-13.625 32.078125-13.625 32.078125 13.625zm0 0" fill="#ffd073"/><path d="m256 503.09375c-42.054688 0-76.269531-34.214844-76.269531-76.269531v-78.296875h31.347656v78.296875c0 24.769531 20.152344 44.921875 44.921875 44.921875s44.921875-20.152344 44.921875-44.921875v-78.296875h31.34375v78.296875c0 42.054687-34.210937 76.269531-76.265625 76.269531zm0 0" fill="#2880a8"/><path d="m215.996094 431.105469c0 4.910156-3.980469 8.890625-8.902344 8.890625h-27.824219c-2.457031 0-4.683593-.992188-6.292969-2.601563-1.609374-1.609375-2.601562-3.835937-2.601562-6.289062 0-4.914063 3.980469-8.894531 8.894531-8.894531h27.824219c2.464844 0 4.679688.992187 6.300781 2.601562 1.609375 1.609375 2.601563 3.835938 2.601563 6.292969zm0 0" fill="#b2aca3"/><path d="m215.996094 431.105469c0 4.910156-3.980469 8.890625-8.902344 8.890625h-14.660156c-2.457032 0-4.679688-.992188-6.289063-2.601563s-2.601562-3.835937-2.601562-6.289062c0-4.914063 3.980469-8.894531 8.890625-8.894531h14.660156c2.464844 0 4.679688.992187 6.300781 2.601562 1.609375 1.609375 2.601563 3.835938 2.601563 6.292969zm0 0" fill="#d8d4ce"/><path d="m341.625 431.105469c0 4.910156-3.980469 8.890625-8.902344 8.890625h-27.828125c-2.453125 0-4.679687-.992188-6.289062-2.601563s-2.601563-3.835937-2.601563-6.289062c0-4.914063 3.980469-8.894531 8.890625-8.894531h27.828125c2.464844 0 4.679688.992187 6.300782 2.601562 1.609374 1.609375 2.601562 3.835938 2.601562 6.292969zm0 0" fill="#b2aca3"/><path d="m341.625 431.105469c0 4.910156-3.980469 8.890625-8.902344 8.890625h-14.660156c-2.457031 0-4.683594-.992188-6.292969-2.601563-1.605469-1.609375-2.601562-3.835937-2.601562-6.289062 0-4.914063 3.984375-8.894531 8.894531-8.894531h14.660156c2.464844 0 4.679688.992187 6.300782 2.601562 1.609374 1.609375 2.601562 3.835938 2.601562 6.292969zm0 0" fill="#d8d4ce"/><path d="m215.996094 352.808594c0 4.910156-3.980469 8.890625-8.902344 8.890625h-27.824219c-2.457031 0-4.683593-.992188-6.292969-2.601563-1.609374-1.609375-2.601562-3.835937-2.601562-6.289062 0-4.910156 3.980469-8.894532 8.894531-8.894532h27.824219c2.464844 0 4.679688.996094 6.300781 2.601563 1.609375 1.609375 2.601563 3.835937 2.601563 6.292969zm0 0" fill="#b2aca3"/><path d="m215.996094 352.808594c0 4.910156-3.980469 8.890625-8.902344 8.890625h-14.660156c-2.457032 0-4.679688-.992188-6.289063-2.601563s-2.601562-3.835937-2.601562-6.289062c0-4.910156 3.980469-8.894532 8.890625-8.894532h14.660156c2.464844 0 4.679688.996094 6.300781 2.601563 1.609375 1.609375 2.601563 3.835937 2.601563 6.292969zm0 0" fill="#d8d4ce"/><path d="m341.625 352.808594c0 4.910156-3.980469 8.890625-8.902344 8.890625h-27.828125c-2.453125 0-4.679687-.992188-6.289062-2.601563s-2.601563-3.835937-2.601563-6.289062c0-4.910156 3.980469-8.894532 8.890625-8.894532h27.828125c2.464844 0 4.679688.996094 6.300782 2.601563 1.609374 1.609375 2.601562 3.835937 2.601562 6.292969zm0 0" fill="#b2aca3"/><path d="m341.625 352.808594c0 4.910156-3.980469 8.890625-8.902344 8.890625h-14.660156c-2.457031 0-4.683594-.992188-6.292969-2.601563-1.605469-1.609375-2.601562-3.835937-2.601562-6.289062 0-4.910156 3.984375-8.894532 8.894531-8.894532h14.660156c2.464844 0 4.679688.996094 6.300782 2.601563 1.609374 1.609375 2.601562 3.835937 2.601562 6.292969zm0 0" fill="#d8d4ce"/><path d="m242.875 128.871094v28.320312c-2.277344-1.011718-5.003906-1.605468-7.933594-1.605468-7.988281 0-14.460937 4.386718-14.460937 9.796874 0 5.410157 6.472656 9.796876 14.460937 9.796876 7.988282 0 14.464844-4.386719 14.464844-9.796876v-28.777343l28.320312-6.152344v19.167969c-2.277343-1.015625-5.003906-1.605469-7.933593-1.605469-7.984375 0-14.460938 4.386719-14.460938 9.796875s6.476563 9.796875 14.460938 9.796875c7.988281 0 14.464843-4.386719 14.464843-9.796875v-35.957031c0-2.898438-2.675781-5.050781-5.503906-4.4375l-32.304687 7.019531c-2.085938.449219-3.574219 2.296875-3.574219 4.433594zm0 0" fill="#fff"/></svg>